<?xml version="1.0" encoding="utf-8"?>
<!-- Generator: Adobe Illustrator 16.0.0, SVG Export Plug-In . SVG Version: 6.00 Build 0)  -->
<!DOCTYPE svg PUBLIC "-//W3C//DTD SVG 1.1//EN" "http://www.w3.org/Graphics/SVG/1.1/DTD/svg11.dtd">
<svg version="1.1" xmlns="http://www.w3.org/2000/svg" xmlns:xlink="http://www.w3.org/1999/xlink" x="0px" y="0px" width="800px"
	 height="582.616px" viewBox="0 0 800 582.616" enable-background="new 0 0 800 582.616" xml:space="preserve">
<g id="Background" display="none">
	<rect x="0" y="-65.83" display="inline" fill="#FFE300" width="800" height="800"/>
	<rect x="0" y="-65.83" display="inline" fill="none" width="800" height="800"/>
</g>
<g id="Objects">
	<g>
		<g>
			<g>
				<g>
					<path fill="#231F20" d="M592.203,523.082l-64.394-254.235c-0.013-0.047-0.029-0.087-0.04-0.134l-4.729-18.703
						c-1.313-5.181-6.758-9.418-12.104-9.418h-19.429l-183.015,0h-19.429c-5.345,0-10.791,4.237-12.103,9.418l-4.756,18.794
						c-0.003,0.017-0.01,0.03-0.014,0.043l-64.393,254.236c-3.936,15.54,5.961,28.252,21.99,28.252h340.425
						C586.242,551.335,596.139,538.623,592.203,523.082z"/>
					<path fill="#414042" d="M592.203,523.082l-1.811-7.146c0.144,1.015-0.71,5.696-28.734,5.696c-28.416,0-161.165,0-163.371,0
						c-20.885,0-131.527,0.001-159.943,0.001c-28.024,0-28.878-4.683-28.734-5.697l-1.811,7.146
						c-3.936,15.54,5.961,28.252,21.99,28.252h168.499h171.927C586.242,551.335,596.139,538.623,592.203,523.082z"/>
					<g>
						<path fill="#58595B" d="M426.85,252.017c0,1.571-1.312,2.856-2.915,2.856h-40.439c-1.603,0-2.915-1.286-2.915-2.856
							c0-1.571,1.312-2.857,2.915-2.857h40.439C425.539,249.16,426.85,250.445,426.85,252.017z"/>
					</g>
					<g>
						<path fill="#231F20" d="M466.833,535.685c0,1.604-1.312,2.915-2.915,2.915H225.838c-1.603,0-2.915-1.312-2.915-2.915v-0.854
							c0-1.604,1.312-2.915,2.915-2.915h238.081c1.604,0,2.915,1.312,2.915,2.915V535.685z"/>
					</g>
					<g>
						<path fill="#231F20" d="M571.94,535.685c0,1.604-1.312,2.915-2.915,2.915h-86.708c-1.604,0-2.915-1.312-2.915-2.915v-0.854
							c0-1.604,1.312-2.915,2.915-2.915h86.708c1.604,0,2.915,1.312,2.915,2.915V535.685z"/>
					</g>
					<polygon fill="#FFFFFF" points="570.798,501.069 230.347,501.069 283.471,265.728 517.674,265.728 					"/>
					
						<ellipse fill="none" stroke="#8BC3CD" stroke-width="1.0527" stroke-miterlimit="10" cx="400.287" cy="347.695" rx="85.397" ry="42.558"/>
					<path fill="#D6E03D" d="M400.569,303.997c-47.323,0-85.683,19.437-85.683,43.414c0,23.975,38.36,43.414,85.683,43.414
						c47.324,0,85.684-19.439,85.684-43.414C486.253,323.434,447.893,303.997,400.569,303.997z M400.569,382.993
						c-38.792,0-70.233-15.929-70.233-35.582c0-19.657,31.442-35.585,70.233-35.585c38.789,0,70.234,15.928,70.234,35.585
						C470.803,367.064,439.358,382.993,400.569,382.993z"/>
				</g>
				<polygon fill="#7AD3C6" points="548.6,402.757 252.699,402.757 230.347,501.069 570.798,501.069 				"/>
			</g>
			<g>
				
					<radialGradient id="SVGID_1_" cx="440.7642" cy="650.2363" r="81.2471" gradientTransform="matrix(1.1672 0 0 0.1167 -120.6895 275.4868)" gradientUnits="userSpaceOnUse">
					<stop  offset="0" style="stop-color:#231F20"/>
					<stop  offset="0.0091" style="stop-color:#282425"/>
					<stop  offset="0.1127" style="stop-color:#5A5757"/>
					<stop  offset="0.221" style="stop-color:#868484"/>
					<stop  offset="0.3323" style="stop-color:#ABAAAA"/>
					<stop  offset="0.4471" style="stop-color:#CAC9C9"/>
					<stop  offset="0.5666" style="stop-color:#E1E1E1"/>
					<stop  offset="0.6928" style="stop-color:#F2F2F2"/>
					<stop  offset="0.8303" style="stop-color:#FCFCFC"/>
					<stop  offset="1" style="stop-color:#FFFFFF"/>
				</radialGradient>
				<ellipse fill="url(#SVGID_1_)" cx="393.771" cy="351.369" rx="94.819" ry="9.483"/>
				<g>
					<g>
						<g>
							<path fill="#917325" d="M448.037,265.701c-0.604,0-1.205-0.222-1.684-0.665c-0.997-0.931-1.051-2.494-0.119-3.492
								c7.344-7.881,24.406-30.867,15.244-42.389c-1.399-1.76-2.963-2.503-4.964-2.421c-10.194,0.574-26.153,22.586-31.444,31.025
								c-0.723,1.157-2.237,1.505-3.405,0.782c-1.151-0.729-1.505-2.252-0.78-3.406c2.083-3.328,20.782-32.516,35.355-33.33
								c3.478-0.217,6.72,1.278,9.105,4.278c13.678,17.199-14.305,47.543-15.505,48.831
								C449.352,265.437,448.697,265.701,448.037,265.701z"/>
						</g>
						<path fill="#5E9732" d="M442.37,243.849l19.754,12.347c0,0-27.779,71.608-25.31,96.302h-14.815
							C421.999,352.498,428.17,265.456,442.37,243.849z"/>
						<path fill="#57892B" d="M410.886,352.498h11.112c0,0,7.408-80.252,20.371-108.649l-22.841-29.632
							C419.529,214.217,399.774,287.062,410.886,352.498z"/>
						<linearGradient id="SVGID_2_" gradientUnits="userSpaceOnUse" x1="397.3052" y1="283.3574" x2="344.5219" y2="283.3574">
							<stop  offset="0" style="stop-color:#ABD038"/>
							<stop  offset="1" style="stop-color:#6CB33F"/>
						</linearGradient>
						<path fill="url(#SVGID_2_)" d="M419.529,214.217c0,0-16.668,92.6-8.643,138.281h-53.708c0,0-12.346-75.313-25.928-96.919
							C331.251,255.579,387.428,220.391,419.529,214.217z"/>
						<g>
							<circle fill="#FFFFFF" cx="383.95" cy="239.702" r="4.63"/>
							<circle fill="#FFFFFF" cx="356.088" cy="252.893" r="4.63"/>
						</g>
						<g>
							<path fill="#917325" d="M354.956,253.264c-0.849,0-1.679-0.439-2.137-1.23c-1.968-3.4-19.031-33.577-12.939-46.839
								c1.495-3.251,4.272-5.343,8.04-6.048c21.591-4.046,35.347,34.87,35.92,36.529c0.444,1.288-0.236,2.69-1.525,3.14
								c-1.297,0.448-2.694-0.232-3.144-1.52c-3.535-10.186-15.867-36.022-30.345-33.297c-2.209,0.415-3.627,1.447-4.457,3.256
								c-4.264,9.284,7.741,33.688,12.722,42.302c0.685,1.186,0.281,2.69-0.901,3.376
								C355.804,253.158,355.375,253.264,354.956,253.264z"/>
						</g>
					</g>
					<path fill="#FFFFFF" d="M409.821,224.371c0,0-14.094,82.692-5.692,117.908C404.128,342.278,390.181,286.821,409.821,224.371z"
						/>
					<linearGradient id="SVGID_3_" gradientUnits="userSpaceOnUse" x1="390.8384" y1="300.7466" x2="343.2227" y2="300.7466">
						<stop  offset="0" style="stop-color:#7AC143"/>
						<stop  offset="1" style="stop-color:#6CB33F"/>
					</linearGradient>
					<path opacity="0.5" fill="url(#SVGID_3_)" d="M342.425,248.995c-6.051,3.555-11.174,6.583-11.174,6.583
						c13.582,21.606,25.928,96.919,25.928,96.919h53.708l-45.108-7.981C345.42,295.738,342.43,249.01,342.425,248.995z"/>
				</g>
			</g>
			<g>
				<g>
					<g>
						<path fill="#ED1849" d="M350.452,102.862h-68.746c-2.299,0-4.382-1.353-5.299-3.459l-25.052-56.747h-19.559
							c-3.206,0-5.798-2.592-5.798-5.798c0-3.205,2.592-5.798,5.798-5.798h23.342c2.299,0,4.382,1.354,5.299,3.46l25.052,56.746
							h60.229l7.453-36.49h-64.42c-3.203,0-5.798-2.594-5.798-5.799c0-3.205,2.596-5.799,5.798-5.799h71.521
							c1.745,0,3.386,0.782,4.497,2.13c1.095,1.353,1.526,3.126,1.187,4.83l-9.818,48.087
							C355.58,100.925,353.204,102.862,350.452,102.862z"/>
					</g>
					<g>
						<path fill="#ED1849" d="M355.988,75.771h-49.83c-3.206,0-5.798-2.594-5.798-5.798c0-3.205,2.592-5.799,5.798-5.799h49.83
							c3.207,0,5.801,2.594,5.801,5.799C361.789,73.178,359.194,75.771,355.988,75.771z"/>
					</g>
				</g>
				<g>
					<g>
						<path fill="#58595B" d="M305.082,120.779c0,6.403-5.188,11.597-11.597,11.597s-11.597-5.194-11.597-11.597
							c0-6.405,5.188-11.597,11.597-11.597S305.082,114.374,305.082,120.779z"/>
					</g>
					<g>
						<path fill="#58595B" d="M346.646,120.779c0,6.403-5.188,11.597-11.597,11.597c-6.412,0-11.597-5.194-11.597-11.597
							c0-6.405,5.185-11.597,11.597-11.597C341.458,109.182,346.646,114.374,346.646,120.779z"/>
					</g>
				</g>
			</g>
			<g>
				<g>
					<path fill="#6D6E71" d="M190.052,450.183c2.985,3.514,2.55,8.836-0.969,11.819l-3.366,2.86
						c-3.518,2.985-8.84,2.549-11.822-0.967l-24.401-28.621c-1.793-2.117,2.082-7.806,3.415-8.938l0.705-0.596
						c3.516-2.982,10.069-6.504,12.037-4.182L190.052,450.183z"/>
					<path fill="#414042" d="M165.824,421.767c1.899,2.235-0.181,7.117-4.641,10.902c-4.461,3.789-9.617,5.045-11.517,2.813
						c-1.897-2.24,0.183-7.122,4.646-10.908C158.773,420.792,163.932,419.531,165.824,421.767z"/>
					<path fill="#65BBE9" d="M153.83,415.247c18.585-19.49,19.844-50.27,2.021-71.266c-19.054-22.455-52.72-25.214-75.169-6.154
						c-22.455,19.059-25.207,52.718-6.148,75.174c17.818,20.992,48.395,24.758,70.65,9.583l5.686,6.7
						c1.865,2.2,5.189,2.472,7.389,0.604l0.653-0.553c2.197-1.863,2.471-5.187,0.604-7.389L153.83,415.247z"/>
					
						<linearGradient id="SVGID_4_" gradientUnits="userSpaceOnUse" x1="125.0313" y1="339.2607" x2="214.8384" y2="339.2607" gradientTransform="matrix(0.9967 0.0815 -0.0815 0.9967 -26.5326 26.4966)">
						<stop  offset="0" style="stop-color:#54BCEB"/>
						<stop  offset="1" style="stop-color:#0076C0"/>
					</linearGradient>
					<path fill="url(#SVGID_4_)" d="M149.426,349.432c16.054,18.908,13.728,47.244-5.175,63.287
						c-18.906,16.055-47.248,13.735-63.294-5.172c-16.048-18.907-13.729-47.249,5.176-63.297
						C105.039,328.201,133.385,330.525,149.426,349.432z"/>
					<path fill="#F1F1F2" d="M147.167,351.348c14.99,17.664,12.818,44.127-4.832,59.116c-17.66,14.991-44.128,12.823-59.115-4.836
						c-14.992-17.659-12.827-44.129,4.83-59.115C105.706,331.523,132.18,333.689,147.167,351.348z"/>
					<path fill="#FFFFFF" d="M151.194,417.813l1.769-1.718l5.521,6.469c0,0,1.532,1.576-0.071,3.102L151.194,417.813z"/>
				</g>
			</g>
			<g>
				<g>
					<rect x="117.675" y="141.429" fill="#FFFFFF" width="81.426" height="112.493"/>
					<rect x="117.675" y="141.429" fill="#00BCD2" width="81.426" height="17.005"/>
					<g>
						<g>
							<rect x="132.716" y="168.245" fill="#BCBEC0" width="56.246" height="3.725"/>
							<rect x="132.716" y="182.832" fill="#BCBEC0" width="56.246" height="3.725"/>
							<rect x="132.716" y="198.041" fill="#BCBEC0" width="56.246" height="3.725"/>
						</g>
						<rect x="132.716" y="214.491" fill="#BCBEC0" width="56.246" height="27.003"/>
					</g>
				</g>
				<g>
					<g>
						<path fill="#00B259" d="M153.845,252.056l16.116-17.213l15.643,22.467c0,0,16.688-41.67,54.388-63.939l2.429,1.566
							c0,0-33.136,24.733-49.199,86.37l-3.495,1.226L153.845,252.056z"/>
						<polygon fill="#00853F" points="153.845,252.056 189.727,282.533 180.298,282.577 152.847,259.686 						"/>
						<path fill="#00853F" d="M185.604,257.31c0,0,16.688-41.67,54.388-63.939c-32.368,17.202-56.251,56.319-57.463,59.524
							L185.604,257.31z"/>
					</g>
				</g>
			</g>
			<g>
				<g>
					<rect x="458.703" y="28.022" fill="#9B5BA5" width="81.86" height="75.51"/>
					<polygon fill="#9B5BA5" points="433.912,92.792 499.635,149.786 565.359,92.792 					"/>
				</g>
				<g>
					<g>
						<path fill="#FFFFFF" d="M497.79,104.421v-4.856c-2.789-0.048-5.675-0.914-7.357-2.116l1.154-3.222
							c1.731,1.154,4.23,2.068,6.924,2.068c3.414,0,5.722-1.972,5.722-4.712c0-2.645-1.874-4.28-5.434-5.723
							c-4.904-1.923-7.934-4.135-7.934-8.318c0-3.991,2.837-7.021,7.261-7.742v-4.857h2.981v4.665
							c2.885,0.096,4.856,0.866,6.252,1.683l-1.203,3.174c-1.01-0.577-2.981-1.636-6.06-1.636c-3.701,0-5.096,2.212-5.096,4.136
							c0,2.5,1.778,3.751,5.962,5.481c4.954,2.02,7.454,4.52,7.454,8.8c0,3.799-2.645,7.358-7.598,8.175v5.001H497.79z"/>
					</g>
					<g>
						<path fill="#FFFFFF" d="M499.636,58.692c5.511,0,10.617,1.711,14.835,4.619l4.009-4.01
							c-5.277-3.895-11.779-6.226-18.844-6.226c-8.456,0-16.118,3.323-21.815,8.705l3.974,3.973
							C486.469,61.385,492.732,58.692,499.636,58.692z"/>
						<path fill="#FFFFFF" d="M499.636,111.04c-6.731,0-12.851-2.563-17.487-6.738l-3.972,3.971
							c5.659,5.19,13.177,8.384,21.459,8.384c6.888,0,13.249-2.214,18.456-5.938l-4.025-4.025
							C509.929,109.435,504.973,111.04,499.636,111.04z"/>
						<path fill="#FFFFFF" d="M473.461,84.865c0-5.336,1.605-10.292,4.348-14.43l-4.026-4.025
							c-3.723,5.208-5.938,11.566-5.938,18.455c0,7.063,2.332,13.566,6.227,18.845l4.01-4.01
							C475.174,95.482,473.461,90.376,473.461,84.865z"/>
						<path fill="#FFFFFF" d="M525.81,84.865c0,6.905-2.692,13.167-7.061,17.842l3.971,3.972c5.384-5.694,8.706-13.358,8.706-21.814
							c0-8.282-3.192-15.801-8.382-21.458l-3.973,3.97C523.247,72.017,525.81,78.133,525.81,84.865z"/>
					</g>
				</g>
			</g>
			<g>
				<path fill="#009DDC" d="M608.849,192.791c0,17.394,14.102,31.493,31.496,31.493c17.39,0,31.491-14.099,31.491-31.493
					s-14.102-31.496-31.491-31.496C622.951,161.294,608.849,175.396,608.849,192.791z"/>
				<g>
					<path fill="#72CDF4" d="M617.909,202.356c0.076,0.12,0.059,0.645,0.294,0.639c0.234-0.009,0.536,0.063,0.547-0.083
						c0.015-0.146-0.004-0.424,0.053-0.582c0.057-0.154,0.071-0.301,0.242-0.576c0.172-0.278,0.611-0.619,0.611-0.619
						s0.285-0.398,0.347-0.129c0.063,0.27,0.296,0.45,0.284,0.596c-0.014,0.143,0.096,0.212,0.311,0.117
						c0.215-0.1,0.459-0.063,0.339-0.366c-0.117-0.304-0.071-0.313-0.204-0.662c-0.128-0.347-0.201,0.143-0.128-0.347
						c0.074-0.493,0.235-0.812,0.235-0.812s-0.376-0.386-0.031-0.326s0.501,0.306,0.501,0.306s0.132,0.161,0.267,0.129
						c0.132-0.032,0.435-0.152,0.384-0.375c-0.055-0.224-0.173-0.527-0.173-0.527s-0.522-0.209-0.181-0.762
						c0.345-0.553,0.537-0.742,0.629-0.952c0.09-0.211,0.197-0.759,0.197-0.759l0.575-0.562c0,0,0.236-0.008,0.232,0.181
						c-0.001,0.192-0.216,0.29,0.041,0.37c0.258,0.08,0.279-0.02,0.705-0.023c0.424-0.006,0.915,0.066,0.947,0.201
						c0.03,0.135,0.733,1.104,0.733,1.104s0.677,0.266,0.854,0.416c0.178,0.146,0.903,0.209,0.955,0.436
						c0.054,0.224,1.26,0.931,1.371,1.192c0.107,0.255,0.179,0.759,0.253,1.075c0.075,0.312,0.104,0.639,0.192,0.805
						c0.086,0.169,0.696,0.544,0.696,0.544s0.186,0.381,0.24,0.607c0.052,0.224,0.13,0.157,0.361,0.338
						c0.232,0.181,0.441,0.464,0.441,0.464s0.634,0.278,0.516-0.218c-0.114-0.49-0.114-0.49-0.169-0.716
						c-0.051-0.223,0.539-0.931,0.474-1.198c-0.064-0.272-0.055-0.839-0.109-1.063c-0.052-0.227-0.025-0.708,0.047-1.006
						c0.07-0.3,0.198-0.756,0.19-0.991c-0.008-0.235-0.074-0.315-0.058-0.837c0.018-0.527,0.155-0.748,0.069-0.917
						c-0.089-0.168-0.229-0.562-0.347-0.862c-0.119-0.304,0.086-0.636,0.086-0.636s0.298,0.261,0.376,0.384
						c0.076,0.124,0.467,0.172,0.467,0.172l0.538-0.126l0.161-0.513l-0.252-0.272l-0.152-0.438l0.363-0.272
						c0,0,0.75-0.226,0.717-0.361c-0.031-0.135,0.132-0.646,0.132-0.646s-0.128-0.346,0.164-0.51
						c0.292-0.166,0.919-0.312,1.108-0.31c0.192,0,1.242-0.151,1.242-0.151l0.641-0.293l1.262-0.682c0,0,0.257-0.295,0.263-0.673
						c0.006-0.381,0.691-0.685,0.691-0.685s0.077,0.123,0.411,0.138c0.336,0.017,0.535,0.063,0.85-0.201
						c0.32-0.266,0.609-0.427,0.636-0.719c0.028-0.29,0.074-0.49,0.122-0.88c0.053-0.393,0.157-0.748,0.157-0.748l0.563-0.415
						c0,0,0.292-0.164,0.436,0.037c0.143,0.203-0.244-0.034,0.143,0.203c0.387,0.241,0.527-0.171,0.576,0.241
						c0.052,0.416,0.037,0.751-0.069,1.109c-0.105,0.356-0.151,0.557-0.208,0.711c-0.059,0.157-0.026,0.289-0.018,0.524
						c0.006,0.235-0.062,0.347-0.175,0.467c-0.115,0.12-0.407,0.287-0.374,0.421c0.031,0.135,0.283,0.404-0.011,0.567
						c-0.289,0.164-1.031,0.436-1.031,0.436s-0.102,0.163-0.433-0.04c-0.336-0.207-0.092,0.02-0.336-0.207
						c-0.24-0.224-0.508-0.352-0.508-0.352s-0.312-0.115-0.402,0.097c-0.093,0.212-0.029,0.475-0.029,0.475s0.132,0.161,0.019,0.284
						c-0.113,0.12-0.218,0.287-0.419,0.43c-0.204,0.144-0.293,0.353-0.293,0.353s-0.35,0.129-0.333,0.41
						c0.021,0.281-0.194,0.375,0.084,0.547s0.556,0.155,0.911,0.447c0.353,0.295,0.664,0.602,0.894,0.785
						c0.232,0.18,0.521,0.207,0.881,0.313c0.354,0.106,0.602,0.14,1.058,0.077c0.461-0.061,0.775-0.321,0.953-0.178
						c0.178,0.149,0.187,0.384,0.673,0.456c0.492,0.075,1.61,0,1.61,0s0.266,0.126,0.422,0.184c0.154,0.06,0.401,0.095,0.715,0.02
						c0.313-0.074,0.819-0.335,0.819-0.335s0.167,0.1,0.434,0.037c0.269-0.063,0.517-0.215,0.444-0.53
						c-0.074-0.313-0.058-0.84-0.166-1.098c-0.109-0.255-0.121-1.722-0.121-1.722s-0.08-0.124,0.083-0.633
						c0.166-0.513,0.191-0.802,0.191-0.802s0.415-1.046,0.217-1.281c-0.197-0.237-0.285-0.407-0.37-0.573
						c-0.09-0.168-0.118-0.496,0.027-0.67c0.149-0.177,0.571-0.799,0.571-0.799l-0.245-1.031c0,0,0.05-0.577,0.063-0.723
						s-0.036-0.562-0.036-0.562s0.811,0.074,1.105,0.567c0,0,0.641,0.914,0.437,1.247c-0.207,0.332-0.278,0.633-0.115,1.02
						c0.163,0.387,0.364,0.341,0.24,0.725c-0.119,0.384-0.098-0.12-0.119,0.384c-0.023,0.501-0.012,0.854,0.137,1.172
						c0.144,0.321,0.358,0.627,0.104,1.04c-0.259,0.416-0.114-0.184-0.259,0.416c-0.14,0.602-0.025,0.791-0.045,1.006
						c-0.021,0.218,0.138-0.318-0.021,0.218c-0.154,0.536-0.43,0.883-0.113,1.023c0.316,0.138,0.8,0.378,0.61,0.777
						c-0.188,0.398-0.276,0.633-0.509,0.547c-0.234-0.086-0.412-0.541-0.412-0.541c-0.39,0.446-0.611,0.713-0.549,0.979
						c0.064,0.272-0.116-0.186,0.064,0.272c0.178,0.453,0.04,0.768-0.146,0.883s-0.118,0.1-0.643,0.295
						c-0.521,0.195-0.656,0.227-0.991,0.304c-0.336,0.08-0.591,0.212-0.843,0.341c-0.252,0.134-0.556,0.347-0.789,0.261
						c-0.233-0.089-0.397-0.476-0.586-0.078c-0.189,0.401-0.571-0.006-0.189,0.401c0.378,0.407,0.647,0.344,0.765,0.53
						c0.112,0.186,2.121,1.768,2.554,2.092c0.43,0.323,0.395,0.473,0.829,0.516c0.435,0.037,1.06-0.038,1.06-0.038
						s0.031-0.155,0.598,0.141c0.568,0.292,1.087,0.381,1.351,0.602c0.267,0.224,0.731,0.395,0.731,0.395s0.515,0.375,0.962,0.768
						c0.447,0.39,0.567,0.292,0.61,0.777c0.044,0.487-0.261,0.702-0.212,0.902c0.049,0.204,0.028,0.418-0.027,0.788
						c-0.054,0.37-0.054,0.37-0.054,0.37l-0.312,0.783c0,0-0.058,0.366,0.274,0.856c0.327,0.49,0.159,0.673,0.474,0.811
						c0.317,0.138,0.332,0.207,0.736,0.109c0.403-0.095,0.258-0.413,0.741-0.175c0.482,0.24-0.017-0.066,0.482,0.24
						c0.498,0.31,0.542,0.794,0.542,0.794s-0.438,0.25-0.376,0.516c0.065,0.27-0.32,0.146,0.065,0.27
						c0.383,0.12-0.099-0.118,0.383,0.12c0.483,0.241,0.547,0.51,0.678,0.765c0.13,0.252,0.95,0.413,0.95,0.413
						s0.684,0.037,0.802-0.094c0.12-0.135,2.172-2.029,2.931-4.834c0.757-2.806,1.364-4.439,1.286-5.061
						c-0.077-0.622-0.067-1.189-0.226-1.863c-0.161-0.67,0.071-1.791-0.009-2.126c-0.08-0.338,0.834-2.184,0.401-3.717
						c-0.437-1.53-0.616-1.699-0.689-2.604c-0.071-0.905,0.26-1.906,0.347-2.141c0.088-0.235,0.595-0.779,0.868-1.129
						c0.272-0.347,1.271-1.929,1.18-2.264c-0.095-0.341-0.843-3.671-2.588-6.407c-1.745-2.74-3.533-3.221-4.447-3.786
						s-1.16-1.003-1.43-0.94c-0.27,0.063-0.186,0.115-0.744,0.462c-0.558,0.344-0.657,0.226-1.059,0.321
						c-0.404,0.095-0.713,0.593-1.018,0.808c-0.304,0.215-0.664-0.41-0.304,0.215c0.361,0.625-0.221,0.264,0.361,0.625
						c0.582,0.358,0.8,0.378,0.674,1.046c-0.127,0.668-0.328,0.717-0.398,1.018c-0.072,0.301,0.06,0.553-0.078,0.868
						c-0.139,0.318-0.24,0.484-0.526,0.765c-0.291,0.281-0.459,0.464-0.712,0.31c-0.247-0.152-0.406-0.825-0.406-0.825
						s-0.246-0.438-0.535-0.158c-0.29,0.281-0.577,0.562-0.683,1.015c-0.106,0.45-0.109,0.736-0.533,1.049
						c-0.424,0.312-0.424,0.312-0.424,0.312s-0.576,0.562-1.115,0.688c-0.535,0.126-1.061,0.607-1.498,0.567
						c-0.434-0.037-0.716-0.327-1.078-0.665c-0.364-0.341-0.877-1-0.925-1.204c-0.046-0.201-0.51-0.659,0.246-0.768
						c0.756-0.106,1.022-0.169,1.358-0.25c0.338-0.08,1.393-0.115,1.084-0.826c-0.311-0.705-0.182-1.662-0.413-1.745
						c-0.235-0.089-0.603-0.144-0.854-0.015c-0.254,0.132-0.237,0.201-0.812,0.476c-0.572,0.281-0.538,0.129-1.075,0.255
						c-0.539,0.129-0.823,0.126-1.209,0.287c-0.389,0.163-0.491,0.33-0.827,0.41c-0.334,0.077-0.688,0.375-0.953,0.155
						c-0.269-0.221-0.702-0.261-0.26-0.791c0.443-0.53,1.179-0.705,1.188-1.275c0.008-0.57,0.015-1.14,0.267-1.269
						c0.255-0.132-0.412-0.542,0.692-0.378c1.104,0.166,1.504,0.355,1.769,0.579c0.266,0.218,0.536,0.155,0.831,0.51
						c0.296,0.358,0.567,0.292,0.769,0.246c0.2-0.046,0.071-0.301,0.489-0.329c0.418-0.029,0.741-0.175,0.803,0.094
						c0.065,0.267,0.16,0.673,0.358,0.909c0.197,0.238,0.243,0.725,0.599,0.427c0.352-0.295,0.381,0.121,0.352-0.295
						c-0.026-0.421-0.208-0.593-0.354-0.912c-0.147-0.321-0.108-0.756-0.356-0.911c-0.251-0.152-0.415-0.255-0.532-0.442
						c-0.114-0.183-0.275-0.573-0.09-0.688c0.185-0.114,0.488-0.327,0.439-0.53c-0.046-0.201-0.127-0.539-0.127-0.539
						c-0.363-0.338-0.363-0.338-0.363-0.338s-0.009-0.542,0.447-0.416c0.456,0.131,0.422,0.186,0.6,0.332
						c0.176,0.146,0.289,0.215,0.35,0.677c0.06,0.458,0.103,0.636,0.012,0.848c-0.094,0.212-0.207,0.332-0.109,0.547
						c0.099,0.212,0.353,0.484,0.608,0.375c0.262-0.108,0.271-0.255,0.223-0.667c-0.051-0.413,0.108-0.737,0.056-0.96
						c-0.053-0.223-0.03-0.323-0.128-0.538c-0.097-0.215-0.157-0.671-0.157-0.671s0.018-0.524,0.315-0.267
						c0.299,0.264-0.173,0.278,0.299,0.264c0.469-0.02,0.503-0.075,0.727-0.126c0.228-0.052,0.105-0.355,0.45-0.106
						c0.342,0.249,0.576,0.244,0.842,0.367c0.267,0.125-0.063-0.267,0.714,0.208c0.776,0.482,1.119,0.542,1.119,0.542l0.472-0.207
						c0,0,0.249-0.152,0.132-0.456c-0.12-0.307,0.04-0.625-0.372-0.765c-0.411-0.141-0.676-0.456-1.106-0.685
						c-0.433-0.229-0.527-0.633-0.799-0.57c-0.268,0.065-0.74,0.272-1.143,0.366c-0.405,0.095-1.479-0.452-1.701-0.779
						c-0.218-0.326-0.16-0.481-0.652-0.366c-0.491,0.117-0.173,0.277-0.717,0.171c-0.546-0.109-1.158-0.297-1.158-0.297
						s-0.47,0.017-0.648,0.06c-0.18,0.042-0.523-0.209-0.669-0.218c-0.144-0.014-0.379-0.009-0.626,0.146
						c-0.249,0.152-0.711,0.593-1.026,0.668c-0.314,0.075-0.838-0.131-0.927,0.077c-0.093,0.209-0.018,0.335-0.376,0.421
						c-0.358,0.083-0.536,0.126-0.678-0.078c-0.141-0.203-0.026-0.512-0.318-0.539c-0.289-0.026-0.498-0.12-0.67-0.035
						c-0.17,0.089-0.317,0.459-0.585,0.33c-0.267-0.126-0.329-0.396-0.464-0.364c-0.135,0.031-0.591,0.095-0.814,0.146
						c-0.227,0.054-0.596,0.095-0.627-0.04c-0.032-0.135-0.187-0.384,0.197-0.568c0.381-0.186,0.72-0.357,0.72-0.357l-0.018-0.471
						l-0.401-0.094c0,0-0.467-0.174-0.646-0.132c-0.18,0.043-0.581-0.051-0.581-0.051s-0.116-0.493,0.198-0.568
						c0.312-0.075,0.974-0.089,1.275-0.017c0.299,0.068,0.699,0.166,0.922,0.304c0.22,0.135,0.568,0.006,0.869,0.267
						c0.297,0.261,0.631,0.467,0.631,0.467s0.376,0.003,0.496,0.118c0.123,0.112,0.321,0.35,0.51,0.353
						c0.189,0,0.717,0.02,0.654-0.25c-0.064-0.27-0.152-0.438-0.363-0.531c-0.21-0.091-0.476-0.41-0.476-0.41
						c0.384-0.183,0.489-0.539,0.489-0.539s-0.101-0.212-0.444-0.275c-0.348-0.06-0.749,0.227-1.432,0.149
						c-0.68-0.075-1.284-0.026-1.705-0.209c-0.424-0.186-0.914-0.257-1.16-0.295c-0.244-0.037-0.935-0.155-1.125-0.157
						c-0.19-0.003-0.571-0.012-0.996,0.186c-0.427,0.198-0.616,0.195-0.811,0.378c-0.192,0.189-0.418,0.432-0.575,0.564
						c-0.156,0.131-0.397,0.521-0.366,0.656c0.031,0.132,0.007,0.232,0.32,0.158c0.314-0.075,0.688-0.304,0.822-0.335
						c0.134-0.032,0.272-0.252,0.333,0.017c0.064,0.27,0.03,0.324,0.118,0.493c0.087,0.169,0.284,0.404,0.193,0.616
						c-0.092,0.212-0.152,0.367-0.529,0.361c-0.38-0.006-0.537-0.063-0.792-0.143c-0.255-0.08-0.244-0.227-0.656-0.178
						c-0.415,0.055-1.474-0.217-1.653-0.175c-0.178,0.043-0.805,0.189-0.975,0.278c-0.168,0.085-1.235,0.576-1.691,0.447
						c-0.455-0.129,0.176-0.656-0.531-0.441c-0.706,0.212-0.721,0.358-0.822,0.524c-0.104,0.166-0.152,0.559-0.339,0.364
						c-0.189-0.192-0.582,0.137-0.761-0.009c-0.177-0.149-0.226-0.562-0.226-0.562s0.386-0.567-0.109-0.45
						c-0.492,0.117-0.673,0.35-0.765,0.561c-0.092,0.212-0.093,0.401-0.34,0.364c-0.244-0.038-0.45,0.106-0.511-0.164
						c-0.064-0.27,0.077-0.871,0.077-0.871s0.151-0.364-0.217-0.516c-0.365-0.149-0.453-0.318-0.643-0.321
						c-0.191-0.002-0.59-0.094-0.663,0.204c-0.071,0.301-0.062,0.536-0.323,0.645c-0.255,0.109-0.524,0.172-0.659,0.204
						c-0.135,0.031-1.005-0.046-1.005-0.046l-0.531-0.252l-1.03-0.077c0,0-3.038,2.453-4.17,3.802c0,0-0.953,2.272-1.173,2.751
						c-0.218,0.476-0.538,1.121-0.538,1.121l-0.767,0.559c0,0-0.504,0.688-0.709,1.209c-0.207,0.524-0.597,2.083-0.714,2.585
						c-0.117,0.501-0.072,0.487-0.091,1.014c-0.019,0.524-0.032,0.86-0.047,1.006c-0.012,0.143-0.025,0.289-0.106,0.544
						c-0.083,0.255-0.562,1.031-0.623,1.375c-0.059,0.347-0.262,1.292,0.022,0.897c0.284-0.401,0.412-0.667,0.572-0.988
						c0.159-0.321,0.072-0.49,0.255-0.723c0.181-0.235-0.267-0.129,0.181-0.235c0.449-0.103,0.645-0.481,0.696-0.066
						c0.048,0.413,0.098,0.829,0.152,1.052c0.052,0.224,0.172,0.524-0.098,0.78c-0.272,0.255-0.41,0.476-0.545,0.507
						s0.058,0.648,0.043,0.983c-0.015,0.335-0.406,1.278-0.406,1.278s-0.489,1.536-0.385,1.983c0.108,0.45,0.418,0.756,0.313,1.114
						c-0.106,0.353-0.124,0.688-0.124,0.688s0.39,1.046,0.677,1.45c0.284,0.407-0.144,0.602,0.613,0.992
						c0.753,0.39,0.937,0.155,1.391,0.287c0.458,0.129,0.675,0.456,0.729,0.679c0.052,0.224,0.275,1.167,0.17,1.519
						c-0.104,0.358-0.425,1-0.425,1s-0.506,0.263-0.421,0.622s0.2,1.04,0.283,1.398c0.086,0.361-0.006,0.381,0.261,0.507
						C617.586,202.192,617.833,202.229,617.909,202.356z M637.179,182.179c-0.09-0.169,0.395-0.519,0.453-0.676
						c0.059-0.158,0.206-0.333,0.206-0.333s0.282-0.398,0.446-0.719c0.159-0.324-0.144-0.393-0.275-0.553
						c-0.13-0.154-0.255-0.077-0.41-0.141c-0.157-0.054-0.303-0.068-0.431-0.418c-0.13-0.344-0.084-0.355-0.013-0.656
						c0.068-0.301,0.458-0.06,0.458-0.06l0.467,0.172c0,0,0.588,0.287,0.745,0.344c0.152,0.058,0.588,0.29,0.953,0.436
						c0.365,0.151,0,0,0.153,0.249c0.154,0.247,0.006,0.424-0.04,0.625c-0.049,0.197-0.488,0.541-0.488,0.541
						s0.084,0.358,0.285,0.597c0.197,0.235,0.209,0.091,0.43,0.226c0.223,0.14,0.132,0.35,0.292,0.831
						c0.162,0.484-0.083,0.447-0.3,0.734c-0.215,0.29-0.804,0.808-0.804,0.808c-0.163,0.51-0.306,0.307-0.728,0.124
						c-0.423-0.184,0,0-0.009-0.235c-0.007-0.235-0.186-0.192-0.375-0.384c-0.187-0.192-0.006-0.424-0.006-0.424
						s0.118-0.313,0.132-0.455c0.012-0.147-0.178-0.338-0.546-0.301c-0.369,0.043-0.279,0.02-0.512-0.161
						C637.034,182.167,637.264,182.348,637.179,182.179z M634.058,180.597c0.117-0.312,0,0,0.049-0.201
						c0.046-0.2,0.36-0.275,0.36-0.275s0,0,0.167,0.104c0.165,0.103,0.4,0.094,0.637,0.085c0.234-0.009,0.051,0.224,0.06,0.459
						c0.008,0.235-0.049,0.475-0.11,0.736c-0.076,0.318-0.494,0.118-0.494,0.118s-0.142-0.204-0.284-0.407
						c-0.144-0.203-0.189-0.003-0.401-0.094C633.83,181.03,633.943,180.91,634.058,180.597z M622.861,184.667
						c-0.131-0.35,0,0,0.158-0.324c0.16-0.321,0,0,0.05-0.198c0.045-0.201,0.524,0.017,0.524,0.017l-0.055,0.579
						c0,0-0.159,0.324-0.551,0.272C622.599,184.964,622.988,185.013,622.861,184.667z"/>
					<path fill="#72CDF4" d="M615.659,204.448c-0.095-0.215-0.161-0.484-0.157-0.673c0.001-0.189,0.233-0.009,0.233-0.009
						s0.372,0.576,1.121,1.536c0.747,0.957,0.341,0.438,0.572,0.619c0.232,0.183,0.272,0.361,0.517,0.587
						c0.244,0.229,0.344,0.252,0.609,0.375c0.268,0.129,0.254,0.892,0.308,1.304c0.06,0.47-0.719,0.358-1.142,0.172
						c-0.423-0.184-0.299-0.258-0.361-0.53c-0.063-0.267-0.162-0.481-0.205-0.662c-0.04-0.177-0.418-0.372-0.65-0.553
						c-0.233-0.18-0.106-0.45-0.125-0.728c-0.018-0.281-0.196-0.427-0.25-0.651C616.077,205.012,615.757,204.663,615.659,204.448z"
						/>
					<path fill="#72CDF4" d="M619.959,205.419c0.013-0.146,0.003-0.192,0.161-0.513c0.162-0.323,0.097-0.401,0.343-0.553
						c0.246-0.154,0.235,0.181,0.246-0.154c0.018-0.336-0.043-0.794-0.043-0.794s0.038-0.436,0.25-0.341
						c0.212,0.089,0.577,0.241,0.519,0.587c-0.061,0.341-0.141,0.41-0.278,0.633c-0.138,0.221-0.16,0.321-0.197,0.565
						c-0.036,0.246-0.061,0.346-0.021,0.713c0.04,0.37,0.125,0.728,0.125,0.728s-0.092,0.212-0.239,0.387
						c-0.146,0.178-0.33,0.321-0.425,0.009c-0.068-0.224-0.148-0.628-0.18-0.763C620.188,205.789,619.945,205.565,619.959,205.419z"
						/>
					<path fill="#72CDF4" d="M620.714,208.411c0.126-0.27,0.262-0.298,0.232-0.625c-0.03-0.324-0.595,0.094-0.03-0.324
						c0.563-0.415,0.279-0.017,0.563-0.415c0.286-0.401,0.409-0.476,0.466-0.633c0.061-0.155,0.272-0.444,0.272-0.444l0.183-0.229
						c0,0,0.262-0.297,0.316-0.074c0.051,0.224,0.143,0.201,0.025,0.516c-0.116,0.309-0.061,0.344-0.311,0.688
						c-0.25,0.341-0.097-0.215-0.25,0.341c-0.153,0.559-0.153,0.559-0.144,0.793c0.008,0.232,0.095,0.401,0.082,0.547
						c-0.015,0.143,0.115,0.493-0.012,0.759c-0.126,0.267-0.418,0.619-0.418,0.619l-0.438,0.152
						c-0.218-0.327-0.235-0.797-0.458-0.934c-0.222-0.138-0.491-0.075-0.284-0.404C620.714,208.411,620.588,208.677,620.714,208.411
						z"/>
					<path fill="#72CDF4" d="M629.041,203.602c0.037-0.246,0,0,0.095-0.401c0.097-0.401,0.224-0.055,0.404-0.098
						c0.177-0.042,0.217,0.327,0.217,0.327s0.145,0.204,0.388,0.43s0.06,0.421-0.178,0.848c-0.161,0.284-0.649,0.057-0.86-0.224
						l-0.261-0.318c0,0,0,0,0.159-0.321C629.164,203.522,629.004,203.846,629.041,203.602z"/>
					<path fill="#72CDF4" d="M649.915,209.216c0.226-0.054,0.344,0.061,0.344,0.061l0.344,0.252c0,0,0.299,0.261,0.453,0.318
						c0.156,0.057,0.245,0.037,0.513-0.026c0.271-0.066,0.338-0.178,0.662-0.207c0.325-0.028,0,0,0.292,0.026
						c0.288,0.026,0.342,0.252,0.342,0.252l0.085,0.358l-0.384,0.375c0,0-0.007,0.378,0.184,0.573c0.186,0.188,0,0,0.189,0
						c0.188,0,0.354,0.295,0.354,0.295s0,0,0.039,0.37c0.04,0.367-0.464,0.441-0.469,0.82c0,0,0.03,0.324-0.019,0.524
						c-0.046,0.2-0.438,0.151-1.295,0.117c-0.862-0.031,0,0-0.142-0.201c-0.146-0.204-0.211-0.281-0.364-0.53
						c-0.152-0.25-0.251-0.461-0.415-0.754c-0.163-0.292-0.174-0.341-0.263-0.507c-0.086-0.169-0.585-0.479-0.633-0.892
						c-0.052-0.413-0.01-0.232-0.109-0.447c-0.097-0.215-0.072-0.313,0.065-0.728C649.829,208.858,649.688,209.268,649.915,209.216z
						"/>
				</g>
				<path fill="#13B5EA" d="M701.668,191.908h-18.381c-0.474-23.287-19.547-42.087-42.941-42.087c-0.006,0-0.013,0-0.019,0v-18.007
					c0-0.829-0.672-1.5-1.5-1.5s-1.5,0.671-1.5,1.5v18.125c-21.998,1.536-39.477,19.694-39.93,41.969h-18.086
					c-0.828,0-1.5,0.671-1.5,1.5s0.672,1.5,1.5,1.5h18.117c1.059,21.708,18.307,39.224,39.898,40.731v18.117
					c0,0.829,0.672,1.5,1.5,1.5s1.5-0.671,1.5-1.5v-18c0.006,0,0.013,0,0.019,0c22.98,0,41.803-18.137,42.91-40.849h18.412
					c0.828,0,1.5-0.671,1.5-1.5S702.497,191.908,701.668,191.908z M640.346,232.757c-22.04,0-39.971-17.928-39.971-39.965
					c0-22.04,17.931-39.971,39.971-39.971c22.036,0,39.964,17.931,39.964,39.971C680.31,214.829,662.382,232.757,640.346,232.757z"
					/>
			</g>
			<g>
				<g>
					<rect x="612.473" y="392.384" fill="#414042" width="84.596" height="51.302"/>
					<path fill="#414042" d="M623.736,461.212c0,5.943,4.818,10.763,10.762,10.763s10.764-4.819,10.764-10.763
						c0-5.944-4.82-10.763-10.764-10.763S623.736,455.268,623.736,461.212z M628.745,461.212c0-3.178,2.575-5.753,5.755-5.753
						c3.178,0,5.753,2.575,5.753,5.753s-2.575,5.755-5.753,5.755C631.32,466.967,628.745,464.39,628.745,461.212z"/>
					<g>
						<path fill="#414042" d="M608.969,439.899v16.557h12.386c1.947-5.382,7.088-9.235,13.143-9.235
							c6.054,0,11.197,3.854,13.145,9.235h47.365c1.949-5.382,7.089-9.235,13.146-9.235c6.054,0,11.194,3.854,13.144,9.235h17.57
							c0,0,4.756-3.002,4.756-7.507c0-4.506,0-17.52,0-17.52s-2.001-4.006-3.503-4.257c-1.502-0.25-8.511-22.023-8.511-22.023
							s-0.248-2.254-4.255-2.505c-4.004-0.25-26.781,0-26.781,0v37.255H608.969z M704.077,406.649h23.528l7.759,20.523h-31.287
							V406.649z"/>
						<path fill="#414042" d="M697.39,461.212c0,5.943,4.817,10.763,10.763,10.763c5.943,0,10.762-4.819,10.762-10.763
							c0-5.944-4.818-10.762-10.762-10.762C702.208,450.45,697.39,455.268,697.39,461.212z M702.398,461.212
							c0-3.178,2.577-5.753,5.755-5.753c3.179,0,5.755,2.575,5.755,5.753s-2.576,5.755-5.755,5.755
							C704.975,466.967,702.398,464.39,702.398,461.212z"/>
					</g>
				</g>
				<g>
					<g>
						<path fill="#EE4043" d="M711.155,321.284c-8.991-24.478-32.968-23.48-32.968-23.48s-23.977-0.998-32.967,23.48
							c-8.994,24.477,10.272,38.563,15.767,43.81c5.496,5.244,17.2,17.633,17.2,17.633s11.704-12.389,17.198-17.633
							C700.879,359.847,720.146,345.761,711.155,321.284z M678.187,357.174c-13.063,0-23.651-10.59-23.651-23.65
							c0-13.063,10.589-23.653,23.651-23.653c13.061,0,23.649,10.591,23.649,23.653
							C701.836,346.584,691.248,357.174,678.187,357.174z"/>
						<path fill="#F8971D" d="M692.693,333.523c0,8.011-6.492,14.506-14.507,14.506s-14.506-6.495-14.506-14.506
							c0-8.017,6.491-14.511,14.506-14.511S692.693,325.508,692.693,333.523z"/>
					</g>
				</g>
			</g>
			<g>
				<g>
					<g>
						
							<line fill="none" stroke="#939598" stroke-width="2" stroke-linejoin="round" x1="178.102" y1="381.757" x2="181.102" y2="381.757"/>
						
							<line fill="none" stroke="#939598" stroke-width="2" stroke-linejoin="round" stroke-dasharray="5.7629,5.7629" x1="186.864" y1="381.757" x2="287.715" y2="381.757"/>
						<polyline fill="none" stroke="#939598" stroke-width="2" stroke-linejoin="round" points="290.596,381.757 293.596,381.757 
							295.558,379.487 						"/>
						
							<line fill="none" stroke="#939598" stroke-width="2" stroke-linejoin="round" stroke-dasharray="6.3871,6.3871" x1="299.734" y1="374.654" x2="331.054" y2="338.408"/>
						
							<line fill="none" stroke="#939598" stroke-width="2" stroke-linejoin="round" x1="333.142" y1="335.991" x2="335.103" y2="333.722"/>
					</g>
				</g>
			</g>
			<g>
				<g>
					<g>
						
							<line fill="none" stroke="#939598" stroke-width="2" stroke-linejoin="round" x1="626.68" y1="375.682" x2="624.875" y2="373.286"/>
						
							<line fill="none" stroke="#939598" stroke-width="2" stroke-linejoin="round" stroke-dasharray="5.8378,5.8378" x1="621.36" y1="368.625" x2="602.032" y2="342.986"/>
						<polyline fill="none" stroke="#939598" stroke-width="2" stroke-linejoin="round" points="600.274,340.655 598.468,338.26 
							595.468,338.26 						"/>
						
							<line fill="none" stroke="#939598" stroke-width="2" stroke-linejoin="round" stroke-dasharray="6.2121,6.2121" x1="589.256" y1="338.26" x2="455.696" y2="338.26"/>
						
							<line fill="none" stroke="#939598" stroke-width="2" stroke-linejoin="round" x1="452.589" y1="338.26" x2="449.589" y2="338.26"/>
					</g>
				</g>
			</g>
			<g>
				<g>
					<g>
						
							<line fill="none" stroke="#939598" stroke-width="2" stroke-linejoin="round" x1="656.578" y1="129.77" x2="654.854" y2="127.314"/>
						
							<line fill="none" stroke="#939598" stroke-width="2" stroke-linejoin="round" stroke-dasharray="6.1644,6.1644" x1="651.311" y1="122.269" x2="610.576" y2="64.251"/>
						<polyline fill="none" stroke="#939598" stroke-width="2" stroke-linejoin="round" points="608.804,61.728 607.081,59.273 
							604.081,59.273 						"/>
						
							<line fill="none" stroke="#939598" stroke-width="2" stroke-linejoin="round" stroke-dasharray="6.3079,6.3079" x1="597.773" y1="59.273" x2="563.08" y2="59.273"/>
						
							<line fill="none" stroke="#939598" stroke-width="2" stroke-linejoin="round" x1="559.925" y1="59.273" x2="556.925" y2="59.273"/>
					</g>
				</g>
			</g>
			<g>
				<g>
					<g>
						
							<line fill="none" stroke="#939598" stroke-width="2" stroke-linejoin="round" x1="154.922" y1="120.292" x2="156.646" y2="117.837"/>
						
							<line fill="none" stroke="#939598" stroke-width="2" stroke-linejoin="round" stroke-dasharray="5.5661,5.5661" x1="159.844" y1="113.282" x2="190.229" y2="70.006"/>
						<polyline fill="none" stroke="#939598" stroke-width="2" stroke-linejoin="round" points="191.829,67.728 193.552,65.273 
							196.552,65.273 						"/>
						
							<line fill="none" stroke="#939598" stroke-width="2" stroke-linejoin="round" stroke-dasharray="6.4052,6.4052" x1="202.958" y1="65.273" x2="225.375" y2="65.273"/>
						
							<line fill="none" stroke="#939598" stroke-width="2" stroke-linejoin="round" x1="228.578" y1="65.273" x2="231.578" y2="65.273"/>
					</g>
				</g>
			</g>
			<g>
				<g>
					<g>
						
							<line fill="none" stroke="#939598" stroke-width="2" stroke-linejoin="round" x1="382.542" y1="65.273" x2="385.542" y2="65.273"/>
						
							<line fill="none" stroke="#939598" stroke-width="2" stroke-linejoin="round" stroke-dasharray="6.2829,6.2829" x1="391.825" y1="65.273" x2="438.947" y2="65.273"/>
						
							<line fill="none" stroke="#939598" stroke-width="2" stroke-linejoin="round" x1="442.088" y1="65.273" x2="445.088" y2="65.273"/>
					</g>
				</g>
			</g>
			
				<polyline fill="none" stroke="#939598" stroke-width="2" stroke-linejoin="round" stroke-miterlimit="10" stroke-dasharray="6" points="
				104.605,216.766 83.606,239.264 83.606,320.261 			"/>
			
				<polyline fill="none" stroke="#939598" stroke-width="2" stroke-linejoin="round" stroke-miterlimit="10" stroke-dasharray="6" points="
				691.075,221.265 712.075,243.764 712.075,300.761 			"/>
		</g>
	</g>
</g>
</svg>
