<?xml version="1.0" encoding="UTF-8"?>
<svg width="578px" height="471px" viewBox="0 0 578 471" version="1.1" xmlns="http://www.w3.org/2000/svg" xmlns:xlink="http://www.w3.org/1999/xlink">
    <!-- Generator: sketchtool 51.2 (57519) - http://www.bohemiancoding.com/sketch -->
    <title>8AB8AA4E-7D50-4B9A-902E-2526E50365A0@3x</title>
    <desc>Created with sketchtool.</desc>
    <defs>
        <linearGradient x1="50%" y1="0%" x2="7.07965922%" y2="93.5803559%" id="linearGradient-1">
            <stop stop-color="#FDEFFF" offset="0%"></stop>
            <stop stop-color="#B4B1FF" offset="100%"></stop>
        </linearGradient>
        <linearGradient x1="50%" y1="0%" x2="5.41559628%" y2="97.2085564%" id="linearGradient-2">
            <stop stop-color="#FDE8FF" offset="0%"></stop>
            <stop stop-color="#8883FF" offset="100%"></stop>
        </linearGradient>
        <linearGradient x1="95.2784045%" y1="6.08927895%" x2="1.90477534%" y2="16.6186988%" id="linearGradient-3">
            <stop stop-color="#4A198A" offset="0%"></stop>
            <stop stop-color="#181134" offset="100%"></stop>
        </linearGradient>
        <linearGradient x1="-2.27219431%" y1="25.5351074%" x2="91.2330683%" y2="88.5571788%" id="linearGradient-4">
            <stop stop-color="#8682FF" offset="0%"></stop>
            <stop stop-color="#CF22F2" stop-opacity="0" offset="100%"></stop>
        </linearGradient>
        <linearGradient x1="97.0624097%" y1="50%" x2="0%" y2="50%" id="linearGradient-5">
            <stop stop-color="#D1304E" offset="0%"></stop>
            <stop stop-color="#E24E2E" offset="100%"></stop>
        </linearGradient>
        <linearGradient x1="138.2734%" y1="-72.3624448%" x2="32.8115187%" y2="96.302435%" id="linearGradient-6">
            <stop stop-color="#1067FF" offset="0%"></stop>
            <stop stop-color="#8544EB" offset="100%"></stop>
        </linearGradient>
        <linearGradient x1="19.1119478%" y1="13.9314201%" x2="94.9808372%" y2="100%" id="linearGradient-7">
            <stop stop-color="#55A5D5" offset="0%"></stop>
            <stop stop-color="#0795AB" offset="100%"></stop>
        </linearGradient>
        <linearGradient x1="19.1119478%" y1="13.9314201%" x2="94.9808372%" y2="100%" id="linearGradient-8">
            <stop stop-color="#9EDBFF" offset="0%"></stop>
            <stop stop-color="#00BBD8" offset="100%"></stop>
        </linearGradient>
        <linearGradient x1="19.1119478%" y1="13.9314201%" x2="94.9808372%" y2="100%" id="linearGradient-9">
            <stop stop-color="#CBECFF" offset="0%"></stop>
            <stop stop-color="#1DDDFB" offset="100%"></stop>
        </linearGradient>
        <linearGradient x1="19.1119478%" y1="13.9314201%" x2="94.9808372%" y2="100%" id="linearGradient-10">
            <stop stop-color="#82D1FF" offset="0%"></stop>
            <stop stop-color="#1DDDFB" offset="100%"></stop>
        </linearGradient>
        <linearGradient x1="82.2063778%" y1="50%" x2="-52.3373469%" y2="97.816707%" id="linearGradient-11">
            <stop stop-color="#FDE8FF" offset="0%"></stop>
            <stop stop-color="#8883FF" offset="100%"></stop>
        </linearGradient>
        <linearGradient x1="0%" y1="-5.577072%" x2="111.575918%" y2="118.143657%" id="linearGradient-12">
            <stop stop-color="#D38822" offset="0%"></stop>
            <stop stop-color="#762F00" offset="100%"></stop>
        </linearGradient>
        <linearGradient x1="34.7853834%" y1="14.1124305%" x2="31.0240204%" y2="94.4913801%" id="linearGradient-13">
            <stop stop-color="#20152E" stop-opacity="0.448143116" offset="0%"></stop>
            <stop stop-color="#221534" stop-opacity="0" offset="100%"></stop>
        </linearGradient>
        <linearGradient x1="0%" y1="84.6048146%" x2="100%" y2="27.9095781%" id="linearGradient-14">
            <stop stop-color="#EE9720" offset="0%"></stop>
            <stop stop-color="#9E470D" offset="100%"></stop>
        </linearGradient>
        <linearGradient x1="97.0624097%" y1="50%" x2="0%" y2="50%" id="linearGradient-15">
            <stop stop-color="#C02A47" offset="0%"></stop>
            <stop stop-color="#D14223" offset="100%"></stop>
        </linearGradient>
        <linearGradient x1="0%" y1="-5.577072%" x2="111.575918%" y2="118.143657%" id="linearGradient-16">
            <stop stop-color="#D38822" offset="0%"></stop>
            <stop stop-color="#9E470D" offset="100%"></stop>
        </linearGradient>
        <linearGradient x1="97.0624097%" y1="50%" x2="0%" y2="50%" id="linearGradient-17">
            <stop stop-color="#EE506E" offset="0%"></stop>
            <stop stop-color="#FF7557" offset="100%"></stop>
        </linearGradient>
        <linearGradient x1="0%" y1="-5.577072%" x2="111.575918%" y2="118.143657%" id="linearGradient-18">
            <stop stop-color="#F4CC82" offset="0%"></stop>
            <stop stop-color="#FFAC75" offset="100%"></stop>
        </linearGradient>
        <linearGradient x1="50%" y1="0%" x2="138.188103%" y2="141.600026%" id="linearGradient-19">
            <stop stop-color="#F392FF" offset="0%"></stop>
            <stop stop-color="#E359FF" offset="100%"></stop>
        </linearGradient>
        <linearGradient x1="0%" y1="-5.577072%" x2="111.575918%" y2="118.143657%" id="linearGradient-20">
            <stop stop-color="#F5DEB2" offset="0%"></stop>
            <stop stop-color="#F7A26A" offset="100%"></stop>
        </linearGradient>
        <linearGradient x1="50%" y1="0%" x2="135.053889%" y2="136.567546%" id="linearGradient-21">
            <stop stop-color="#EE68FF" offset="0%"></stop>
            <stop stop-color="#B402D8" offset="100%"></stop>
        </linearGradient>
        <linearGradient x1="82.2063778%" y1="50%" x2="-52.3373469%" y2="97.816707%" id="linearGradient-22">
            <stop stop-color="#F396FF" offset="0%"></stop>
            <stop stop-color="#8883FF" offset="100%"></stop>
        </linearGradient>
        <linearGradient x1="82.2063778%" y1="50%" x2="-52.3373469%" y2="97.816707%" id="linearGradient-23">
            <stop stop-color="#FFFFFF" offset="0%"></stop>
            <stop stop-color="#D0CDFF" offset="100%"></stop>
        </linearGradient>
        <linearGradient x1="19.1119478%" y1="13.9314201%" x2="94.9808372%" y2="100%" id="linearGradient-24">
            <stop stop-color="#ACE0FF" offset="0%"></stop>
            <stop stop-color="#1DDDFB" offset="100%"></stop>
        </linearGradient>
        <linearGradient x1="105.161102%" y1="28.2272313%" x2="-15.7226851%" y2="145.529977%" id="linearGradient-25">
            <stop stop-color="#3881AC" offset="0%"></stop>
            <stop stop-color="#1DDDFB" offset="100%"></stop>
        </linearGradient>
        <linearGradient x1="50%" y1="0%" x2="50%" y2="139.823158%" id="linearGradient-26">
            <stop stop-color="#E7B3EE" offset="0%"></stop>
            <stop stop-color="#E0DFFF" offset="100%"></stop>
        </linearGradient>
        <linearGradient x1="50%" y1="0%" x2="50%" y2="139.823158%" id="linearGradient-27">
            <stop stop-color="#FEF3FF" offset="0%"></stop>
            <stop stop-color="#E0DFFF" offset="100%"></stop>
        </linearGradient>
        <radialGradient cx="42.2517338%" cy="16.6518424%" fx="42.2517338%" fy="16.6518424%" r="165.374%" gradientTransform="translate(0.422517,0.166518),scale(0.959314,1.000000),rotate(159.271074),translate(-0.422517,-0.166518)" id="radialGradient-28">
            <stop stop-color="#FDE8FF" offset="0%"></stop>
            <stop stop-color="#8883FF" offset="100%"></stop>
        </radialGradient>
        <radialGradient cx="70.7126735%" cy="7.36579735%" fx="70.7126735%" fy="7.36579735%" r="197.131527%" gradientTransform="translate(0.707127,0.073658),scale(0.965064,1.000000),rotate(158.526734),translate(-0.707127,-0.073658)" id="radialGradient-29">
            <stop stop-color="#FDE8FF" offset="0%"></stop>
            <stop stop-color="#8883FF" offset="100%"></stop>
        </radialGradient>
        <linearGradient x1="0%" y1="40.2885857%" x2="132.027838%" y2="40.2885857%" id="linearGradient-30">
            <stop stop-color="#8F4AFC" offset="0%"></stop>
            <stop stop-color="#EB44D5" offset="100%"></stop>
        </linearGradient>
        <linearGradient x1="50%" y1="0%" x2="50%" y2="100%" id="linearGradient-31">
            <stop stop-color="#FFCF45" offset="0%"></stop>
            <stop stop-color="#F29100" offset="100%"></stop>
        </linearGradient>
        <linearGradient x1="88.2753956%" y1="144.629894%" x2="-22.6637885%" y2="17.9569073%" id="linearGradient-32">
            <stop stop-color="#FFFFFF" offset="0%"></stop>
            <stop stop-color="#DAF200" offset="100%"></stop>
        </linearGradient>
        <ellipse id="path-33" cx="29.0081047" cy="3.06077982" rx="2.34226933" ry="2.34059633"></ellipse>
        <filter x="-384.2%" y="-384.5%" width="868.5%" height="869.0%" filterUnits="objectBoundingBox" id="filter-34">
            <feOffset dx="0" dy="0" in="SourceAlpha" result="shadowOffsetOuter1"></feOffset>
            <feGaussianBlur stdDeviation="6" in="shadowOffsetOuter1" result="shadowBlurOuter1"></feGaussianBlur>
            <feColorMatrix values="0 0 0 0 0   0 0 0 0 0   0 0 0 0 0  0 0 0 0.25220788 0" type="matrix" in="shadowBlurOuter1"></feColorMatrix>
        </filter>
        <linearGradient x1="40.7233306%" y1="100%" x2="22.3583231%" y2="28.3308478%" id="linearGradient-35">
            <stop stop-color="#20152E" stop-opacity="0.448143116" offset="0%"></stop>
            <stop stop-color="#221534" stop-opacity="0" offset="100%"></stop>
        </linearGradient>
        <linearGradient x1="112.504027%" y1="94.4913801%" x2="5.51349176%" y2="25.2342409%" id="linearGradient-36">
            <stop stop-color="#20152E" stop-opacity="0.448143116" offset="0%"></stop>
            <stop stop-color="#221534" stop-opacity="0" offset="100%"></stop>
        </linearGradient>
    </defs>
    <g id="Desktop-HD" stroke="none" stroke-width="1" fill="none" fill-rule="evenodd">
        <g id="Feature-1" transform="translate(-734.000000, -394.000000)" fill-rule="nonzero">
            <g id="tabs" transform="translate(159.000000, 64.000000)">
                <g id="Onboarding---Admission-Officers-2" transform="translate(575.000000, 330.000000)">
                    <path d="M55.4937656,222.536697 C-64.8628429,312.559633 15.9175968,539.454459 251.523691,450.834862 C416.979581,388.601183 456.922693,468.119266 507.371571,375.215596 C541.004156,313.279817 498.62357,243.623411 380.229813,166.246381 C344.772201,77.5715376 294.903411,40.4007257 230.623441,54.733945 C143.418953,74.1788991 175.850374,132.513761 55.4937656,222.536697 Z" id="Path-62" fill="url(#linearGradient-1)" opacity="0.456417411"></path>
                    <path d="M437.103491,48.6123853 C413.801436,60.5815219 365.754364,108.387615 451.157107,118.830275 C536.55985,129.272936 598.900249,242.701835 555.658354,152.678899 C512.416459,62.6559633 585.206983,135.394495 577.279302,82.4610092 C569.351621,29.5275229 471.637471,30.8739531 437.103491,48.6123853 Z" id="Path-269" fill="url(#linearGradient-2)" opacity="0.300000012"></path>
                    <path d="M500.165775,135.653901 C488.624359,129.308506 476.067131,123.978935 462.827815,120.904471 L474.5798,97.2247706 L507.052725,99.4962518 C508.639428,99.6072416 509.83573,100.983494 509.72474,102.570197 C509.710436,102.77469 509.674339,102.977072 509.617064,103.173902 L500.165775,135.653901 Z" id="Combined-Shape" fill="url(#linearGradient-3)" opacity="0.100000001"></path>
                    <path d="M518.52936,332.270797 C518.652266,346.975977 514.933003,361.290911 507.371571,375.215596 C456.922693,468.119266 416.979581,388.601183 251.523691,450.834862 C58.1384156,523.57375 -30.9390823,383.747037 9.90054386,281.516013 C18.1890653,278.05389 28.4620344,276.638767 40.7194514,277.270642 C131.527431,281.951835 99.8167082,481.442661 201.435162,405.463303 C303.053616,329.483945 430.617207,204.53211 464.129676,277.270642 C478.128788,307.655597 498.415886,325.096552 518.52936,332.270797 Z" id="Combined-Shape" fill="url(#linearGradient-4)"></path>
                    <path d="M142.501207,470.805421 C109.348156,469.372883 81.7144565,459.927516 59.8888991,445.290343 L56.9351621,419.146789 L141.256858,454.795872 L142.501207,470.805421 Z" id="Combined-Shape" fill="url(#linearGradient-5)"></path>
                    <path d="M213.74934,77.2368888 L131.396618,297.234333 C130.699592,299.096373 131.644022,301.170906 133.506062,301.867933 C133.516161,301.871713 133.526277,301.875449 133.53641,301.879138 L389.642639,395.133382 C391.510867,395.813648 393.57683,394.850613 394.257095,392.982385 C394.275211,392.932632 394.292228,392.882486 394.308132,392.831982 L489.066937,91.9246387 C489.664137,90.0282236 488.610916,88.0067486 486.7145,87.409548 C486.417478,87.3160127 486.109575,87.2614108 485.798502,87.2471098 L217.28619,74.9027653 C215.725686,74.8310241 214.296995,75.7738803 213.74934,77.2368888 Z" id="Path-68" fill="url(#linearGradient-6)"></path>
                    <g id="Tanaman" transform="translate(385.933915, 308.238532)">
                        <path d="M70.7809845,110.055652 C55.4823612,93.1790958 51.2548045,65.2788694 58.0983143,26.3549727 C65.4203121,22.7794923 88.7668913,71.6447459 82.1936858,92.2664676 C77.8115489,106.014282 74.0073151,111.94401 70.7809845,110.055652 Z" id="Path-63" fill="url(#linearGradient-7)"></path>
                        <path d="M82.113024,100.970603 C64.2545118,56.7866029 83.9019481,11.8765321 75.4993328,1.27759645 C79.7778116,1.27759645 110.265573,40.1976408 90.1676413,82.7816958 C90.1676413,87.0698885 85.9752015,92.9147471 82.113024,100.970603 Z" id="Path-64" fill="url(#linearGradient-8)" transform="translate(85.643738, 51.124100) rotate(10.000000) translate(-85.643738, -51.124100) "></path>
                        <path d="M71.3176029,102.434356 C61.1090282,81.1826578 50.3908447,69.7117749 39.1630525,68.0217069 C40.3538967,89.7137745 53.8585267,97.1101145 63.8181548,103.46982 C70.4579068,107.709623 73.4938858,108.445589 72.926092,105.677717 L71.3176029,102.434356 Z" id="Path-65" fill="url(#linearGradient-9)"></path>
                        <path d="M70.3493465,105.403194 C50.5206875,85.5211884 27.1358972,84.7305909 0.194975451,103.031401 C4.18917931,103.031401 2.53777031,100.551926 26.2025908,112.659638 C34.8402101,117.078932 57.6552759,119.090996 70.3493465,112.659638 C75.3271103,111.344577 75.3271103,108.925762 70.3493465,105.403194 Z" id="Path-66" fill="url(#linearGradient-8)"></path>
                        <path d="M68.4894421,113.884519 C65.7369814,86.7399628 95.4702973,58.597562 157.68939,29.457317 C144.481609,81.8451794 114.748293,109.98758 68.4894421,113.884519 Z" id="Path-67" fill="url(#linearGradient-10)"></path>
                    </g>
                    <g id="Bocah" transform="translate(144.500000, 117.029817)">
                        <path d="M62.6681303,67.1560094 L32.6602343,147.453092 C31.9642271,149.315514 32.9097926,151.38953 34.7722139,152.085537 C34.8442918,152.112473 34.9172149,152.137092 34.9908706,152.159354 L103.734675,172.937434 C105.597129,173.500368 107.569852,172.481625 108.18907,170.63712 L137.408148,83.60031 C138.04091,81.7154619 137.025893,79.6745363 135.141045,79.041775 C135.004297,78.9958676 134.864914,78.9582206 134.723649,78.9290377 L66.7686628,64.8906853 C65.0302513,64.5315588 63.2895365,65.4932103 62.6681303,67.1560094 Z" id="Path-107-Copy" fill="url(#linearGradient-3)" opacity="0.300000012"></path>
                        <path d="M57.6232425,50.5917893 L27.6332658,130.840922 C26.9372587,132.703344 27.8828242,134.77736 29.7452455,135.473367 C29.8321816,135.505856 29.9203417,135.534971 30.0095279,135.560647 L98.6804181,155.330247 C100.526952,155.861844 102.465485,154.849533 103.08447,153.030428 L132.342112,67.0466523 C132.982582,65.1644095 131.975925,63.1193472 130.093683,62.4788777 C129.952471,62.4308276 129.808409,62.3916005 129.66233,62.3614231 L61.723775,48.3264651 C59.9853635,47.9673386 58.2446487,48.9289902 57.6232425,50.5917893 Z" id="Path-107" fill="url(#linearGradient-11)"></path>
                        <path d="M80.6958159,84.4941906 C81.507415,91.2855307 82.319668,95.6033008 83.1325749,97.4475009 C83.9454817,99.291701 85.6631355,102.938406 88.2855362,108.387615 C77.8946124,111.54332 71.4083281,112.503565 68.8266833,111.268349 C66.2450385,110.033133 63.3622454,106.672276 60.1783042,101.18578 C66.4082953,98.0684336 69.5313211,96.1479443 69.5473815,95.4243119 C69.5782961,94.0314024 69.4411106,90.3880286 69.1358252,84.4941906 L80.6958159,84.4941906 Z" id="Path-109" fill="url(#linearGradient-12)"></path>
                        <path d="M86.428003,104.512124 C84.8865326,106.742826 83.2406484,108.398373 83.2406484,106.947248 C83.2406484,104.066514 81.0785536,94.7041284 75.3129676,93.2637615 C73.1205697,92.7160535 71.1626421,91.9340427 69.4391847,90.917729 C69.3790386,89.4280342 69.2947669,87.6153559 69.1863698,85.4796939 L70.351418,84.4941906 L80.6958159,84.4941906 C81.507415,91.2855307 82.319668,95.6033008 83.1325749,97.4475009 C83.734687,98.8134817 84.833163,101.168356 86.428003,104.512124 Z" id="Combined-Shape" fill="url(#linearGradient-13)" opacity="0.400000006"></path>
                        <path d="M61.8329239,56.794912 C58.4274761,75.1335234 59.6812214,85.8070294 65.5941598,88.8154301 C74.4635674,93.3280311 81.1862998,84.3784384 82.5938873,81.2228853 C84.0014748,78.0673321 83.2361592,87.0663041 91.4821583,75.2332834 C93.2312756,71.740786 91.5627304,67.0536799 86.4765227,61.1719651 L61.8329239,56.794912 Z" id="Path-108" fill="url(#linearGradient-14)"></path>
                        <path d="M58.2884508,50.0288621 C52.8130315,55.0581519 51.3292149,64.7066689 83.5824374,65.5798595 C86.7170353,66.1577892 85.8603188,68.7659182 84.0464085,70.945504 C82.2324982,73.1250898 82.0769248,75.6891826 82.9967887,75.6891826 C83.9166527,75.6891826 84.5677512,69.50504 89.0062344,72.3784404 C91.9652232,74.2940406 89.9620747,76.9764238 82.9967887,80.4255901 L80.3578554,84.6215596 C88.8233071,85.6346517 94.3486603,80.113245 96.9339152,68.0573394 C101.258105,47.8922018 63.76387,44.9995722 58.2884508,50.0288621 Z" id="Path-110" fill="url(#linearGradient-3)"></path>
                        <ellipse id="Oval-7" fill="url(#linearGradient-15)" transform="translate(11.891521, 32.228211) rotate(9.000000) translate(-11.891521, -32.228211) " cx="11.8915212" cy="32.228211" rx="8.28802993" ry="1.62041284"></ellipse>
                        <path d="M7.39552621,32.9126699 C7.39552621,28.5120883 -1.95635728,10.1469785 0.472490621,4.338483 C2.90133853,-1.4700125 10.1279353,-0.463547285 10.6438301,2.11389883 C11.1597249,4.69134494 12.1101822,14.0130553 14.776481,14.0130553 C17.4427798,14.0130553 21.8743054,10.8742878 23.5661486,13.1767672 C25.2579918,15.4792467 14.776481,16.7059078 17.342867,29.9913171 C19.0537911,38.8482567 19.3923484,41.8233055 18.3585391,38.9164637 L9.64164561,38.9164637 C8.14423267,37.8476556 7.39552621,35.846391 7.39552621,32.9126699 Z" id="Path-111" fill="url(#linearGradient-16)"></path>
                        <path d="M6.93516622,30.4284408 C9.67309178,31.4388552 13.102014,31.0682634 17.221933,29.3166652 C17.2584725,29.5380288 17.2987411,29.7628905 17.342867,29.9913171 C18.0263301,33.5293999 18.4907958,36.1288718 18.7362642,37.7897329 L8.97996421,38.3313624 C7.92367221,37.1828969 7.39552621,35.3766661 7.39552621,32.9126699 C7.39552621,32.3178789 7.22467906,31.4679735 6.93516622,30.4284408 Z" id="Combined-Shape" fill="url(#linearGradient-13)" opacity="0.400000006"></path>
                        <path d="M3.94469626,30.9651438 C7.21123158,32.9124128 17.0621603,34.1325429 20.0412541,33.7887004 C20.0412541,34.6558521 22.3623812,77.1793857 69.5473815,95.4243119 C69.066916,101.665902 71.2290108,105.026758 76.0336658,105.506881 C80.8383209,105.987003 83.2406484,103.34633 83.2406484,97.5848624 C100.777639,102.146024 111.828346,107.42737 116.392768,113.428899 C115.059964,118.330005 110.439793,132.102285 102.532254,154.745739 L102.532264,154.745742 C102.022314,156.205996 100.449986,157.002691 98.9708938,156.550279 L55.1165372,143.136493 C54.0494202,131.826852 52.1500254,125.126864 49.4183527,123.03653 C45.2991498,119.884428 13.1546114,100.359481 3.94469626,30.9651438 Z" id="Path-112" fill="url(#linearGradient-17)"></path>
                        <path d="M64.126682,93.1358781 C65.8643738,93.9343413 67.670381,94.698536 69.5473815,95.4243119 C69.066916,101.665902 71.2290108,105.026758 76.0336658,105.506881 C80.8383209,105.987003 83.2406484,103.34633 83.2406484,97.5848624 C86.4186312,98.4114178 89.3836094,99.2616235 92.1355831,100.135479 C90.6249641,108.037515 85.8582402,111.988532 77.8354115,111.988532 C66.9598316,111.988532 62.3902545,105.704319 64.1266802,93.1358917 Z" id="Combined-Shape" fill="url(#linearGradient-13)" opacity="0.400000006"></path>
                        <path d="M106.296538,143.919144 C105.137687,147.269189 103.882926,150.878054 102.532254,154.745739 C102.022314,156.205996 100.449986,157.002691 98.9708938,156.550279 L96.8426826,155.899321 L98.0149626,130.713303 L106.296538,143.919144 Z" id="Combined-Shape" fill="url(#linearGradient-13)" opacity="0.400000006"></path>
                    </g>
                    <g id="Emak" transform="translate(245.037406, 91.823394)">
                        <path d="M76.9127823,44.9185888 L39.8355256,152.59542 C39.1882048,154.475318 40.1874058,156.524033 42.0673034,157.171354 C42.1844156,157.21168 42.3035311,157.245935 42.4241744,157.273983 L162.275514,185.137679 C164.103575,185.562676 165.951429,184.511954 166.520963,182.723643 L206.872971,56.0201096 C207.476314,54.1256396 206.429649,52.1007622 204.535179,51.4974194 C204.26425,51.4111352 203.984053,51.3572523 203.700446,51.3368972 L80.5743539,42.4999032 C78.9467157,42.3830845 77.4440672,43.3756731 76.9127823,44.9185888 Z" id="Path-74-Copy" fill="url(#linearGradient-3)" opacity="0.300000012"></path>
                        <path d="M66.1023084,30.5149191 L29.0250517,138.19175 C28.377731,140.071648 29.376932,142.120363 31.2568296,142.767684 C31.3739418,142.80801 31.4930572,142.842266 31.6137006,142.870313 L151.465041,170.734009 C153.293101,171.159007 155.140955,170.108284 155.710489,168.319973 L196.062497,41.6164398 C196.66584,39.7219699 195.619175,37.6970925 193.724705,37.0937497 C193.453776,37.0074654 193.173579,36.9535825 192.889972,36.9332275 L69.76388,28.0962335 C68.1362419,27.9794148 66.6335934,28.9720034 66.1023084,30.5149191 Z" id="Path-74" fill="url(#linearGradient-11)"></path>
                        <path d="M82.5757707,27.2721833 C74.3039172,43.7607543 73.7724138,54.2770053 80.9812604,58.8209364 C92.2293025,64.7891088 97.8533235,72.7404121 97.8533235,82.6748464 L117.240714,60.6401693 L85.7961896,24.4217385 L82.5757707,27.2721833 Z" id="Path-76" fill="url(#linearGradient-3)"></path>
                        <path d="M92.2635853,85.4219483 C97.927212,80.3360357 101.237716,71.4461442 102.195098,58.7522737 C100.326114,58.7522737 87.4468341,63.9602448 83.3736731,25.0960401 C99.1767592,14.5489495 112.22992,11.9739576 122.533156,17.3710642 L131.660901,67.9795137 L108.596965,102.763881 L91.3597602,98.3486605 L92.2635853,85.4219483 Z" id="Path-75" fill="url(#linearGradient-18)"></path>
                        <path d="M96.8158657,79.6597636 C99.7386623,74.5168665 101.53174,67.5477032 102.195098,58.7522737 C102.119258,58.7522737 102.025287,58.7608492 101.914511,58.7747075 L101.978803,58.6949541 L109.546135,55.0940367 C102.098919,65.4166667 100.41729,76.4594801 104.501247,88.2224771 C105.853839,92.1183412 103.292046,89.2641034 96.8158657,79.6597636 Z" id="Combined-Shape" fill="url(#linearGradient-13)" opacity="0.400000006"></path>
                        <path d="M101.978803,34.2087156 C83.1659661,42.3808009 63.3379193,18.994137 88.1997756,5.2671537 C113.061632,-8.45982964 136.506772,8.05932475 137.680757,24.7819716 C138.854743,41.5046184 142.848596,47.6815357 147.082183,54.8361758 C151.315771,61.990816 159.894745,86.8529554 137.680757,96.2263436 C105.567629,110.039262 124.422601,75.2912317 115.211388,65.1803574 C106.000176,55.0694832 103.162264,53.4139922 112.068579,31.3279817 C113.183604,28.756789 105.714863,32.5858131 101.978803,34.2087156 Z" id="Path-77" fill="url(#linearGradient-3)"></path>
                        <path d="M33.8949909,91.7926838 C32.1889244,93.3864115 27.7044522,102.756346 29.6154359,104.549964 C30.8894251,105.745709 35.3964622,100.870308 43.1365473,89.9237601 C40.3209572,88.2842054 37.2404384,88.9071799 33.8949909,91.7926838 Z" id="Path-78" fill="url(#linearGradient-19)"></path>
                        <path d="M40.9830873,111.682811 C30.0540085,95.0529932 23.3984677,86.7380845 21.0164648,86.7380845 C17.4434606,86.7380845 4.57511679,85.9145978 0.468840225,75.1889179 C-0.408894015,72.8037809 3.74594972,74.5157253 5.20884012,75.7024229 C6.18410039,76.4935547 7.41851616,77.2854692 8.91208744,78.0781665 C6.26141587,71.9760367 5.85681994,68.7938972 7.69829966,68.5317478 C10.4605192,68.1385237 10.4605192,72.1089005 12.8415387,73.9056617 C14.428885,75.1035025 14.9809295,75.7024229 14.4976721,75.7024229 C12.3317016,70.4222543 11.7796571,67.6906464 12.8415387,67.507599 C14.4343612,67.233028 17.7184021,74.6754128 18.5484201,75.1889179 C19.3784381,75.7024229 25.2713116,82.4292515 24.032479,68.5317478 C24.032479,66.5967903 25.7569158,66.8050639 26.9357989,67.9903314 C28.6347658,69.6984992 30.0464528,73.4929836 30.6485793,76.3066744 C31.3285336,79.4840486 37.5002578,87.7483049 49.1637519,101.099443 L40.9830873,111.682811 Z" id="Path-79" fill="url(#linearGradient-20)"></path>
                        <path d="M42.2060988,89.3297319 C42.1091297,89.9709834 37.7355694,94.8413649 29.0854178,103.940877 C32.2404464,116.879346 44.2863711,129.164344 65.223192,140.795872 C68.4237805,142.086555 81.0785536,108.979741 81.0785536,111.268349 C81.0785536,112.794087 78.315877,126.477573 72.7905237,152.318807 L132.912609,166.276397 C131.508692,134.165527 130.899549,114.635987 131.08518,107.687777 C132.515902,106.694017 134.049875,136.474771 132.912609,166.276397 C141.140777,168.340196 149.831001,170.626943 154.329354,171.696445 C155.618816,150.098749 152.084535,122.673351 147.252646,102.589745 C143.727089,87.9358737 139.810044,78.7582023 136.932668,76.3394495 C130.685122,71.0876963 120.356608,68.0573394 116.97589,68.1907212 C118.194514,75.2591743 113.870324,85.3417431 107.38404,86.0619266 C101.258105,84.6215596 98.7356608,76.6995413 100.537406,69.4977064 C95.2383834,70.105452 85.042394,71.6582569 82.159601,75.9793578 C80.237739,78.8600917 72.6704073,90.8631498 59.457606,111.988532 C48.0535704,96.2414139 42.303068,88.6884805 42.2060988,89.3297319 Z" id="Path-80" fill="url(#linearGradient-21)"></path>
                        <path d="M75.9633797,153.055399 L72.7905237,152.318807 C77.6414106,129.63195 80.362922,116.315863 80.9550579,112.370547 L81.4389027,110.908257 L85.042394,98.6651376 C85.2826268,108.507645 84.3216958,116.789755 82.159601,123.511468 C80.4091301,128.953488 78.343723,138.801465 75.9633797,153.055399 Z" id="Combined-Shape" fill="url(#linearGradient-13)" opacity="0.400000006"></path>
                        <path d="M131.175371,107.665589 C131.145279,107.659619 131.115207,107.66692 131.08518,107.687777 C130.942967,113.01085 131.267222,125.718158 132.057947,145.8097 L132.529445,166.187444 L106.052348,160.040677 C104.107507,152.265447 106.833615,145.49042 114.230673,139.715596 C125.761845,130.713303 122.518703,106.587156 131.167082,107.307339 L131.175371,107.665589 Z" id="Combined-Shape" fill="url(#linearGradient-13)" opacity="0.400000006"></path>
                    </g>
                    <g id="Om2" transform="translate(323.233167, 268.988532)">
                        <path d="M37.0254468,18.1282276 L6.72864822,95.6394199 C6.00483788,97.4912129 6.91924857,99.5791521 8.77104166,100.302962 C8.78193541,100.30722 8.79284985,100.311425 8.80378459,100.315577 L83.6137673,128.719147 C85.4725273,129.424874 87.5514547,128.490156 88.2571816,126.631396 C88.2672639,126.604841 88.2770316,126.578167 88.2864826,126.551381 L118.500061,40.9192674 C119.161597,39.0443249 118.177936,36.9881029 116.302994,36.326567 C116.219068,36.2969556 116.134074,36.2704664 116.048185,36.2471542 L41.3214228,15.9645057 C39.547002,15.482885 37.6947941,16.4157727 37.0254468,18.1282276 Z" id="Path-81-Copy-2" fill="url(#linearGradient-3)" opacity="0.300000012"></path>
                        <path d="M30.5497946,4.46900906 L0.240588806,83.3497894 C-0.472536584,85.2057235 0.453892887,87.2883577 2.30982694,88.001483 C2.33156387,88.0098353 2.35338133,88.0179764 2.37527623,88.0259052 L71.7000851,113.130681 C76.5605825,114.890826 81.9276733,112.377494 83.6878181,107.516997 C83.6965808,107.492799 83.7052438,107.468565 83.7138066,107.444296 L112.013777,27.2357812 C112.675312,25.3608387 111.691652,23.3046167 109.81671,22.6430807 C109.732784,22.6134693 109.64779,22.5869802 109.561901,22.5636679 L34.8532684,2.28594033 C33.0711893,1.802241 31.2121071,2.74531729 30.5497946,4.46900906 Z" id="Path-81" fill="url(#linearGradient-11)"></path>
                        <path d="M28.8016502,9.94915358 L0.595832221,83.355793 C-0.117293169,85.211727 0.809136302,87.2943612 2.66507036,88.0074866 C2.68680729,88.0158388 2.70862474,88.0239799 2.73051964,88.0319087 L76.6655224,114.806187 C78.5349444,115.483165 80.5992101,114.516499 81.2761889,112.647077 C81.3697473,112.388723 81.4334198,112.120508 81.4659628,111.847669 L86.986502,65.5638252 C87.1233994,64.4160863 86.7008641,63.2724168 85.85063,62.4893794 L28.8016502,9.94915358 Z" id="Path-81-Copy" fill="url(#linearGradient-22)" opacity="0.300000012"></path>
                        <path d="M97.8218379,67.4589448 L84.9378243,103.975153 L81.8673624,86.2185647 L74.4682397,113.683098 C73.5458416,113.641513 72.6140079,113.461643 71.7000851,113.130681 L22.7798094,95.4150527 L46.6535417,63.5075862 L13.7504905,92.1452416 L2.37527623,88.0259052 C2.35338133,88.0179764 2.33156387,88.0098353 2.30982694,88.001483 C0.453892887,87.2883577 -0.472536584,85.2057235 0.240588806,83.3497894 L7.61030023,64.1698547 L62.6434977,42.5042986 L64.530587,41.4292651 C79.8311252,49.1118369 88.1027721,53.4418723 89.345528,54.4193714 C90.2321523,55.1167526 93.057589,59.463277 97.8218379,67.4589448 Z" id="Combined-Shape" fill="url(#linearGradient-23)"></path>
                        <path d="M43.1084126,66.5931416 L13.7504905,92.1452416 L2.37672042,88.0264282 C2.3553346,88.0186837 2.33402265,88.010737 2.31278742,88.0025892 C0.454882813,87.2897261 -0.472943654,85.2067829 0.240429,83.3502053 L7.61030023,64.1698547 L8.1550678,63.9553897 C11.080303,67.3046916 15.7823309,71.3750487 22.3416459,70.9380734 C29.5486284,70.4579511 37.4763092,67.9373089 46.1246883,63.3761468 L43.1084126,66.5931416 Z" id="Combined-Shape" fill="url(#linearGradient-13)" opacity="0.200000003"></path>
                        <path d="M70.583561,40.1611206 C69.3613381,39.076811 56.7970548,35.5927509 54.4127182,45.3715596 C52.0283816,55.1503683 52.2506234,59.4151376 55.4937656,59.4151376 C58.7369077,59.4151376 59.0972569,70.2178899 64.1208637,72.8467501 C69.1444706,75.4756103 73.0121462,73.6078281 79.8815291,64.4187678 C84.4611177,58.2927276 88.4636171,56.024698 91.8890274,57.6146789 C93.877909,48.1307972 91.801728,44.2063526 85.6604843,45.841345 C77.367708,49.2940379 71.805784,41.2454303 70.583561,40.1611206 Z" id="Path-86" fill="url(#linearGradient-24)"></path>
                        <path d="M75.5055458,44.7258069 C78.0816963,46.4290243 81.5328077,47.5599009 85.6604843,45.841345 C91.801728,44.2063526 93.877909,48.1307972 91.8890274,57.6146789 C88.4636171,56.024698 84.4611177,58.2927276 79.8815291,64.4187678 C73.0121462,73.6078281 69.1444706,75.4756103 64.1208637,72.8467501 C62.5038023,72.0005397 61.3699234,70.3073933 60.4675448,68.4002354 C60.6394715,66.7702306 61.2637562,65.215565 62.340399,63.7362385 C65.223192,59.7752294 63.0610973,45.7316514 70.6284289,45.0114679 C72.0040635,44.8805486 73.6297691,44.7853283 75.5055458,44.7258069 Z" id="Combined-Shape" fill="url(#linearGradient-25)" opacity="0.200000003"></path>
                        <path d="M58.3478889,63.0324261 C58.2907431,62.8867403 58.2335795,62.7436285 58.1762548,62.6034511 C58.1819448,62.6152223 58.1876394,62.6269988 58.1933386,62.6387804 C58.2337041,62.7222258 58.2947775,62.847984 58.3765586,63.016055 L58.3478889,63.0324261 Z M57.375101,60.9145327 C56.8399826,59.9932444 56.2440101,59.4151376 55.4937656,59.4151376 C52.8374704,59.4151376 52.2077241,56.5541481 53.3768762,50.1457531 C54.0053198,52.943577 55.3380614,56.5331702 57.375101,60.9145327 Z" id="Combined-Shape" fill="url(#linearGradient-25)" opacity="0.200000003"></path>
                        <path d="M59.2143892,40.4743339 C65.2042336,38.6482215 69.3692626,39.6804772 71.7094763,43.5711009 C75.2197969,49.4070365 80.8189432,48.395242 83.9613466,48.9724771 C87.10375,49.5497122 87.6865547,52.0204566 88.3839977,52.8385319 C89.0814406,53.6566073 82.4272947,51.8517264 75.6718384,53.838836 C68.916382,55.8259456 65.9702011,52.8442155 64.3517211,48.7385643 C63.2727345,46.0014635 61.5602905,43.24672 59.2143892,40.4743339 Z" id="Path-87" fill="url(#linearGradient-25)" opacity="0.800000012"></path>
                        <path d="M39.2780549,73.4587156 C48.4068994,85.941896 62.1001663,91.9434251 80.3578554,91.4633028 L77.4750623,102.626147 C56.9220389,101.433443 42.1477247,94.3516383 33.1521197,81.3807339 L39.2780549,73.4587156 Z" id="Path-88" fill="url(#linearGradient-24)"></path>
                        <path d="M41.0641647,102.036415 L22.7798094,95.4150527 L46.4169942,63.8237342 C38.4793706,78.9525535 36.695094,91.6901136 41.0641647,102.036415 Z M46.5240117,63.6203246 L44.5235256,65.3614772 L46.8453865,63.016055 C46.7371785,63.2178991 46.6300535,63.4193223 46.5240117,63.6203246 Z" id="Combined-Shape" fill="url(#linearGradient-13)" opacity="0.400000006"></path>
                        <g id="Group-34" transform="translate(68.466334, 0.000000)">
                            <path d="M23.5978322,37.8366126 L14.053616,50.412844 C7.60068406,53.7322215 2.91614541,52.7719769 0,47.5321101 L9.84984024,28.7953354 L28.0390472,35.2901139 L23.5978322,37.8366126 Z" id="Path-84" fill="url(#linearGradient-20)"></path>
                            <path d="M18.8134357,44.1409205 C13.675588,45.5922623 8.07896385,45.022493 7.56733167,46.8119266 C7.14403381,48.2924109 9.51772784,49.2138964 14.6884138,49.5763831 L14.053616,50.412844 C13.4093298,50.7442637 12.7826725,51.0330207 12.173644,51.2791149 L10.0998044,51.969901 C5.64946996,53.1133389 2.28286849,51.6340752 0,47.5321101 L8.61442623,31.1453911 L18.5079805,31.8868777 L28.0390472,35.2901139 L23.5978322,37.8366126 L18.8134357,44.1409205 Z" id="Combined-Shape" fill="url(#linearGradient-13)" opacity="0.699999988"></path>
                            <path d="M10.6805307,10.5973168 C1.45704249,29.1356606 -0.318965599,39.4269425 5.35250638,41.4711626 C13.8597144,44.5374927 24.2368206,36.7035417 24.8690143,37.268904 C25.501208,37.8342663 25.0075173,36.7121073 27.0781056,35.4586609 C29.148694,34.2052145 30.8129415,33.7722881 31.4396266,31.1656636 L31.4396266,14.6250929 L11.7742219,9.62296429 L10.6805307,10.5973168 Z" id="Path-82" fill="url(#linearGradient-20)" transform="translate(16.776445, 25.904189) rotate(7.000000) translate(-16.776445, -25.904189) "></path>
                            <path d="M10.8104738,12.603211 L8.64837905,16.2041284 C6.93121069,14.7415586 7.03847735,8.87236361 7.61799028,7.66512138 C9.24874245,4.26793594 19.1483364,-0.588102943 22.701995,0.360091743 C26.2556537,1.30828643 40.5942428,13.711888 39.4203137,24.3744685 C38.7784403,30.2044857 35.6287824,34.5062658 31.7107232,36.7293578 C28.4630022,38.5721025 24.4985123,38.7603907 22.701995,39.25 C22.701995,35.6490826 28.223824,34.7240774 29.5304014,32.7196434 C30.8369788,30.7152093 30.8369788,26.7860976 26.0646593,28.9017954 C21.2923398,31.0174932 19.6546764,29.9557647 24.5037406,26.2866972 C29.3528049,22.6176298 29.7215908,15.3846169 24.5037406,18.0045872 C19.2858905,20.6245575 13.9742672,14.9777572 10.8104738,12.603211 Z" id="Path-83" fill="url(#linearGradient-3)"></path>
                            <ellipse id="Oval-28" stroke="#43345A" stroke-width="1.08" cx="7.56733167" cy="19.0848624" rx="3.9638404" ry="3.96100917"></ellipse>
                            <ellipse id="Oval-28-Copy" stroke="#43345A" stroke-width="1.08" cx="15.4950125" cy="24.8463303" rx="3.9638404" ry="3.96100917"></ellipse>
                            <path d="M18.7381546,27.3669725 L25.584788,29.1674312" id="Path-263" stroke="#43345A" stroke-width="1.08"></path>
                        </g>
                    </g>
                    <g id="Home-Circle" transform="translate(188.822943, 97.224771)">
                        <ellipse id="Oval-Copy-6" fill="url(#linearGradient-3)" opacity="0.200000003" cx="21.4407731" cy="26.2866972" rx="19.2786783" ry="19.0848624"></ellipse>
                        <ellipse id="Oval" fill="url(#linearGradient-17)" cx="19.2786783" cy="19.0848624" rx="19.2786783" ry="19.0848624"></ellipse>
                        <rect id="Rectangle-2" fill="url(#linearGradient-26)" x="10.8104738" y="14.4036697" width="3.60349127" height="13.6834862"></rect>
                        <rect id="Rectangle-2-Copy" fill="url(#linearGradient-26)" x="17.6571072" y="14.4036697" width="3.60349127" height="13.6834862"></rect>
                        <rect id="Rectangle-2-Copy-2" fill="url(#linearGradient-26)" x="24.5037406" y="14.4036697" width="3.60349127" height="13.6834862"></rect>
                        <path d="M20.4869705,3.68960461 L32.3347846,14.5942706 C32.6273663,14.8635613 32.6462475,15.3190489 32.3769568,15.6116307 C32.2406242,15.7597547 32.0485045,15.8440367 31.8471906,15.8440367 L8.15156247,15.8440367 C7.75391745,15.8440367 7.43156247,15.5216817 7.43156247,15.1240367 C7.43156247,14.9227228 7.51584451,14.7306031 7.66396852,14.5942706 L19.5117826,3.68960461 C19.7873656,3.43595943 20.2113875,3.43595943 20.4869705,3.68960461 Z" id="Triangle" fill="url(#linearGradient-27)"></path>
                        <path d="M20.4869709,7.31485368 L26.0736655,12.4568181 C26.3662472,12.7261088 26.3851283,13.1815964 26.1158376,13.4741782 C25.9795051,13.6223022 25.7873854,13.7065842 25.5860715,13.7065842 L14.4126823,13.7065842 C14.0150373,13.7065842 13.6926823,13.3842292 13.6926823,12.9865842 C13.6926823,12.7852703 13.7769643,12.5931507 13.9250883,12.4568181 L19.511783,7.31485368 C19.787366,7.0612085 20.2113878,7.0612085 20.4869709,7.31485368 Z" id="Triangle-Copy" fill="url(#linearGradient-26)"></path>
                        <rect id="Rectangle" fill="url(#linearGradient-27)" x="8.10785536" y="26.2866972" width="22.701995" height="4.68119266" rx="2.34"></rect>
                        <rect id="Rectangle-Copy-6" fill="url(#linearGradient-26)" x="11.5103827" y="27.7270642" width="15.8969403" height="1.80045872" rx="0.900229358"></rect>
                    </g>
                    <g id="Love-Circle" transform="translate(412.960100, 104.066514)">
                        <ellipse id="Oval-2-Copy" fill="url(#linearGradient-3)" opacity="0.200000003" cx="24.6839152" cy="28.8073394" rx="22.5218204" ry="21.6055046"></ellipse>
                        <ellipse id="Oval-2" fill="url(#radialGradient-28)" cx="22.5218204" cy="21.6055046" rx="22.5218204" ry="21.6055046"></ellipse>
                        <path d="M22.7992706,17.2508163 C21.8123855,13.0640661 17.0282616,10.5831635 13.9229174,13.5311334 C8.19623796,18.967593 19.0769289,26.9792178 18.448251,32.4443844 C29.098618,31.5572891 35.3979654,20.9704992 32.8209596,16.9646868 C30.2439539,12.9588745 25.3762763,14.3895217 22.7992706,17.2508163 Z" id="Path-69" fill="url(#linearGradient-17)"></path>
                    </g>
                    <g id="Play-Circle" transform="translate(187.741895, 0.000000)">
                        <ellipse id="Oval-3" fill="url(#radialGradient-29)" cx="26.3054863" cy="25.3864679" rx="26.3054863" ry="25.3864679"></ellipse>
                        <path d="M30.9245093,19.1694855 L36.916047,30.6921333 C37.4663936,31.7505343 37.0545341,33.0546819 35.996133,33.6050284 C35.6883501,33.7650692 35.3465479,33.8486239 34.9996424,33.8486239 L23.016567,33.8486239 C21.823632,33.8486239 20.856567,32.8815589 20.856567,31.6886239 C20.856567,31.3417184 20.9401217,30.9999162 21.1001625,30.6921333 L27.0917002,19.1694855 C27.6420467,18.1110844 28.9461943,17.6992249 30.0045953,18.2495715 C30.3984842,18.4543855 30.7196953,18.7755966 30.9245093,19.1694855 Z" id="Triangle-2" fill="url(#linearGradient-30)" transform="translate(29.008105, 24.666284) rotate(91.000000) translate(-29.008105, -24.666284) "></path>
                    </g>
                    <g id="3-Button-bar" transform="translate(220.894015, 83.181193)">
                        <ellipse id="Oval-4" fill="url(#linearGradient-17)" cx="2.34226933" cy="2.34059633" rx="2.34226933" ry="2.34059633"></ellipse>
                        <ellipse id="Oval-4-Copy" fill="url(#linearGradient-31)" cx="15.675187" cy="3.06077982" rx="2.34226933" ry="2.34059633"></ellipse>
                        <g id="Oval-4-Copy-2">
                            <use fill="black" fill-opacity="1" filter="url(#filter-34)" xlink:href="#path-33"></use>
                            <use fill="url(#linearGradient-32)" xlink:href="#path-33"></use>
                        </g>
                    </g>
                    <g id="Food-Circle" transform="translate(282.153367, 271.869266)">
                        <ellipse id="Oval-5-Copy-2" fill="url(#linearGradient-3)" opacity="0.300000012" cx="31.1701995" cy="23.9461009" rx="18.1976309" ry="18.184633"></ellipse>
                        <ellipse id="Oval-5" fill="url(#linearGradient-11)" cx="28.2874065" cy="18.184633" rx="18.1976309" ry="18.184633"></ellipse>
                        <path d="M18.5731586,10.8029982 C18.3097156,15.5480054 17.9894053,23.2475725 17.9894053,24.3724328 C17.9894053,25.4972931 22.0011665,26.8798096 22.6205572,25.7906533 C23.2399479,24.7014971 25.6562375,16.9886693 27.3864407,12.4798118 C24.6448253,13.4837961 21.4611852,14.3862446 18.5731586,10.8029982 Z" id="Path-70-Copy" fill="#FF8207"></path>
                        <path d="" id="Path-71" stroke="#979797" stroke-width="0.5"></path>
                        <path d="M18.5045288,9.06372209 C20.2941637,8.73865656 25.0827862,8.12433473 28.2291278,11.2777275 C27.9025395,11.7832683 25.0123783,12.1483149 22.7632192,11.6793469 C20.3787577,11.1821671 18.8430028,9.67322824 18.5045288,9.06372209 Z" id="Path-72" fill="url(#linearGradient-6)"></path>
                        <path d="M18.7381546,10.7169485 C20.5277895,10.3918829 24.378227,9.19480077 27.5245685,12.3481935 C26.8822866,12.7653173 24.8803571,13.7994874 22.6311979,13.3305193 C20.2467365,12.8333396 19.0766286,11.3264546 18.7381546,10.7169485 Z" id="Path-72-Copy" fill="url(#linearGradient-17)"></path>
                        <polygon id="Path-73" fill="#F4F4F4" points="18.5424343 20.5556061 18.5424343 21.8899811 27.8385218 7.04922663 31.6685452 9.33926024 32.1668047 8.49907042 27.6382124 5.63728216"></polygon>
                        <path d="M18.5731586,9.00253944 C18.3097156,13.7475467 17.9894053,23.2475725 17.9894053,24.3724328 C17.9894053,25.4972931 22.0011665,26.8798096 22.6205572,25.7906533 C23.2399479,24.7014971 26.3769358,15.5483023 28.1071389,11.0394448 C25.3655235,12.0434292 21.4611852,12.5857858 18.5731586,9.00253944 Z" id="Path-70" fill="url(#linearGradient-3)"></path>
                        <path d="M27.2841929,25.7420376 C25.9207102,26.8112647 25.5735414,27.7705913 26.2426865,28.6200174 C27.2464041,29.8941566 33.2356106,31.7434766 35.4709225,31.2447565 C36.8031183,30.7920646 37.0205311,29.7150623 36.123161,28.0137494 L27.2841929,25.7420376 Z" id="Path-89" fill="url(#linearGradient-17)" transform="translate(31.288595, 28.535071) rotate(1.000000) translate(-31.288595, -28.535071) "></path>
                        <path d="M28.1627734,24.1383236 C26.7753434,24.4782147 26.3128667,24.9439059 26.7753434,25.5353972 C27.4690584,26.4226341 34.6983709,28.7931333 36.7583556,28.4389805 C38.1316787,28.2028786 37.9752237,27.5547113 36.2889904,26.4944786 L28.1627734,24.1383236 Z" id="Path-90" fill="url(#linearGradient-3)"></path>
                        <path d="M26.6768974,23.8801079 C27.4206885,24.38913 28.3385835,23.5540507 28.3385835,23.8801079 C28.3385835,24.2061651 27.5640516,24.2079621 27.9129338,24.5761383 C28.2618159,24.9443145 29.6997184,24.3080369 29.6997184,24.3080369 C29.6997184,24.3080369 29.2033706,25.2193796 29.6997184,25.2193796 C30.0306169,25.2193796 30.3889029,25.0049658 30.7745766,24.5761383 C30.6629283,25.1605627 30.7347504,25.4527749 30.9900428,25.4527749 C31.2453352,25.4527749 31.5491084,25.318406 31.9013625,25.0496681 C31.7901638,25.920951 31.9566246,26.2760609 32.400745,26.1149978 C32.8448654,25.9539348 33.1506243,25.6553954 33.3180218,25.2193796 C33.3568364,26.0022313 33.4985698,26.3936571 33.7432219,26.3936571 C33.987874,26.3936571 34.2108334,26.1638559 34.4121,25.7042534 C34.4057308,26.5857946 34.5609893,26.9577521 34.8778756,26.8201259 C35.1947619,26.6824998 35.3417031,26.3105423 35.318699,25.7042534 C35.610633,26.4481684 35.8403737,26.8201259 36.0079211,26.8201259 C36.2592421,26.8201259 36.4843745,26.5257423 36.4843745,26.1149978 C36.4843745,25.7042534 36.6634239,27.9367847 37.2865561,27.198186 C37.7019777,26.7057869 37.7869877,26.2881163 37.5415863,25.9451741 L37.1209945,24.3080369 L28.8321213,21.7485499 L28.1008625,22.4079648 C26.6556917,23.0500455 26.1810366,23.5407598 26.6768974,23.8801079 Z" id="Path-91" fill="url(#linearGradient-30)"></path>
                        <polygon id="Path-92" fill="#FFD000" points="27.7115173 21.6656597 32.5844027 24.5676022 38.2376646 24.8442397 33.2866629 21.4759558"></polygon>
                        <path d="M27.9232095,20.8811164 C28.2546592,21.4022875 37.5514969,24.4079352 38.1533598,24.1510668 C38.7552226,23.8941985 39.8095455,19.6882643 34.1349686,18.310916 C28.4603918,16.9335677 27.5917597,20.3599453 27.9232095,20.8811164 Z" id="Path-93" fill="url(#linearGradient-17)"></path>
                    </g>
                    <g id="Masmase" transform="translate(35.314214, 106.227064)">
                        <path d="M218.27586,253.108887 C228.10924,253.670542 234.017985,252.120141 236.002095,248.457684 C238.978261,242.963999 245.488744,226.844705 247.930176,229.929905 C250.371607,233.015106 248.265848,239.721809 249.318727,243.334535 C250.371607,246.947262 272.773837,236.490781 275.30309,238.935882 C277.832343,241.380983 278.955647,253.470647 273.478359,260.718528 C268.001071,267.966408 263.652135,270.930697 244.112878,269.448553 C231.086706,268.460457 223.147989,270.512381 220.296725,275.604327 L218.27586,253.108887 Z" id="Path-106" fill="url(#linearGradient-20)"></path>
                        <path d="M229.842604,252.428566 C232.355819,258.876602 233.691795,264.524686 233.850531,269.372819 C226.81888,269.947911 222.300944,272.02508 220.296725,275.604327 L218.27586,253.108887 C223.060671,253.382182 226.916253,253.155408 229.842604,252.428566 Z" id="Combined-Shape" fill="url(#linearGradient-13)" opacity="0.400000006"></path>
                        <path d="M57.5393877,51.3423961 C59.9200787,55.4013012 48.1458168,128.953484 72.5195656,167.656108 C96.8933145,206.358732 139.287043,253.078007 161.447451,255.957661 C183.607858,258.837314 209.723192,245.222477 222.695761,250.263761 C230.323666,252.904586 230.045168,275.345938 225.010835,277.963668 C219.976501,280.581398 151.623356,300.08437 141.256858,297.795872 C130.89036,295.507373 106.663342,276.183709 106.663342,280.511468 C106.663342,284.839227 116.787988,353.557583 111.183979,355.515607 C64.4560469,352.990989 21.7753855,321.620501 16.6084947,310.982142 C11.4416038,300.343782 16.9250448,220.698759 25.9076095,194.07589 C34.8901743,167.453021 7.83971096,148.53772 32.4314214,53.6536697 C37.8373387,46.9503023 55.1586967,47.2834909 57.5393877,51.3423961 Z" id="Path-102" fill="url(#linearGradient-27)"></path>
                        <path d="M27.3865337,268.268349 C44.6832918,263.947248 54.5328346,256.025229 56.9351621,244.502294 C59.3374896,232.979358 63.6616791,223.857034 69.9077307,217.135321 L51.8902743,207.052752 L27.3865337,268.268349 Z" id="Path-248" fill="url(#linearGradient-13)" opacity="0.400000006"></path>
                        <path d="M57.9775583,117.928992 C59.3641582,131.745021 62.1308715,145.726529 67.3203608,157.710733 C49.2774744,155.292143 36.0502944,164.79772 27.6388208,186.227462 C29.5941991,167.754904 17.1246454,150.738118 24.6637029,98.3988234 L57.9775583,117.928992 Z" id="Combined-Shape" fill="url(#linearGradient-35)" opacity="0.200000003"></path>
                        <path d="M108.725888,280.20951 C107.421082,279.720459 106.663342,279.746095 106.663342,280.511468 C106.663342,283.287655 110.829647,312.560656 112.337726,333.710382 C93.3462715,325.765715 84.9685258,303.471582 87.2044888,266.827982 L108.725888,280.20951 Z" id="Combined-Shape" fill="url(#linearGradient-13)" opacity="0.400000006"></path>
                        <path d="M67.5888983,204.428749 L72.6583015,138.880525 C77.9031728,131.630044 82.3101917,127.38832 85.8793583,126.155352 C90.4169426,124.587844 94.9579638,121.091024 101.28177,125.257377 C121.959361,138.880525 120.356608,178.965596 116.032419,181.126147 C113.149626,182.566514 106.083544,183.427592 94.8341742,183.709381 L97.2880866,203.269878 L94.0036057,214.63078 L70.4570738,215.933513 L66.3867787,210.879983 L67.5888983,204.428749 Z" id="Path-100" fill="url(#linearGradient-20)"></path>
                        <path d="M47.5175669,197.205907 C37.9422491,217.902852 30.2174786,248.176237 1.81801044,259.321604 C0.124456902,259.986239 0.124456902,261.16031 0.181113753,261.718997 C1.29712331,272.723843 36.1276387,276.149396 44.8422275,258.347113 C52.6951652,242.305023 53.813518,231.280035 58.0641663,207.798389 L47.5175669,197.205907 Z" id="Path-103" fill="url(#linearGradient-30)"></path>
                        <path d="M48.7169919,198.41055 L58.0641663,207.798389 C53.813518,231.280035 52.6951652,242.305023 44.8422275,258.347113 C36.1276387,276.149396 1.29712331,272.723843 0.181113753,261.718997 C0.152973106,261.441505 0.138809515,261.0122 0.339193092,260.568907 C30.7294636,276.179796 42.5484919,257.397408 43.9625935,253.864679 C32.0790606,264.156384 12.2518703,262.506881 18.7381546,259.626147 C41.0798005,264.667431 54.0523691,227.938073 47.5660848,220.736239 C45.0393399,217.930749 43.2508189,214.223631 42.2005217,209.614884 C43.8201385,205.71685 45.3736707,201.937109 46.9669652,198.410543 L48.7169919,198.41055 Z" id="Combined-Shape" fill="url(#linearGradient-13)" opacity="0.800000012"></path>
                        <path d="M67.6823025,174.265486 C42.090253,185.781094 35.6157599,202.149447 57.3879914,218.207199 C73.5112219,230.098624 101.214929,221.5321 109.344372,222.574536 C114.764001,223.269494 120.116376,226.737768 125.401496,232.979358 C128.555413,231.545751 135.891077,201.690121 123.239401,196.25 C110.587726,190.809879 103.780549,191.928899 95.1446194,186.410113 C96.0972505,191.767071 96.5735661,196.4874 96.5735661,200.571101 C89.3665835,205.612385 77.1147132,202.731651 75.7259914,196.579996 C74.3372695,190.428341 75.7259914,188.807759 75.1824202,180.201728 C69.6867297,177.509943 68.1654632,174.928828 67.6823025,174.265486 Z" id="Path-104" fill="url(#linearGradient-30)"></path>
                        <path d="M77.7481328,199.852754 C59.6267191,200.230083 48.7950876,197.972566 45.2532385,193.080202 C47.9246726,186.099241 55.7123906,179.651566 67.6823025,174.265486 C68.1654632,174.928828 69.6867297,177.509943 75.1824202,180.201728 C75.7259914,188.807759 74.3372695,190.428341 75.7259914,196.579996 C76.004878,197.815387 76.7218722,198.918863 77.7481328,199.852754 Z" id="Combined-Shape" fill="url(#linearGradient-36)" opacity="0.5"></path>
                        <path d="M128.3591,226.768676 C127.381483,230.192528 126.242736,232.596974 125.401496,232.979358 C120.116376,226.737768 114.764001,223.269494 109.344372,222.574536 C101.214929,221.5321 73.5112219,230.098624 57.3879914,218.207199 C47.5557937,210.955623 43.4841388,203.640704 44.3322628,196.737968 C60.3195423,209.459774 74.1298188,214.818524 85.7630923,212.81422 C104.585856,209.571234 128.084974,201.071108 128.3591,226.768676 Z" id="Combined-Shape" fill="url(#linearGradient-13)" opacity="0.400000006"></path>
                        <path d="M38.7541337,58.1256125 C42.6260457,48.5934701 44.5620017,38.9724295 44.5620017,29.2624909 C44.5620017,14.697583 59.6290698,-2.11436538 63.6436989,0.479945003 C67.6583281,3.07425539 71.1505445,6.63433924 65.1200831,25.8090848 C65.1200831,28.5259008 73.4699621,18.8820067 75.2341451,21.2936298 C76.9983281,23.7052529 72.617523,32.1643381 68.130611,35.5684985 C63.6436989,38.9726589 56.5132644,47.2697856 55.3778777,51.4859038 C54.6209532,54.2966493 49.0797052,56.5098856 38.7541337,58.1256125 Z" id="Path-105" fill="url(#linearGradient-20)"></path>
                        <path d="M128.106633,127.331619 C129.091355,129.077839 134.809516,145.290365 121.716601,147.332841 C108.623686,149.375317 104.393517,144.285086 102.670022,150.518349 C100.946527,156.751612 100.685976,166.433961 99.6900936,164.65641 C98.6942108,162.878859 98.0032689,156.210953 93.7122238,156.210953 C89.4211786,156.210953 85.0342765,161.735183 90.4537314,166.269385 C95.8731864,170.803587 96.8069289,177.483964 95.0181499,179.684286 C93.2293709,181.884609 71.4441015,187.62709 63.8720443,167.717508 C56.2999871,147.807927 65.1815622,131.319094 76.4841957,122.701336 C87.7868292,114.083579 115.891848,114.083579 124.425071,128.584901 C126.570862,131.99314 126.702377,130.908522 124.819615,125.331049 C126.354479,125.500616 127.450151,126.167472 128.106633,127.331619 Z" id="Path-101" fill="url(#linearGradient-3)"></path>
                    </g>
                    <path d="M484.217896,415.280659 C483.29426,415.128578 482.363772,414.976921 481.426434,414.825688 C273.865337,381.337156 266.658354,457.316514 126.122195,443.633028 C63.0384945,437.490801 22.3905194,411.432045 4.17826925,365.456759 C23.1527257,442.608911 109.017149,504.436499 251.523691,450.834862 C361.139385,409.604611 415.665563,430.591418 454.654335,422.438441 C461.230708,421.06325 474.611163,419.506158 484.217896,415.280659 Z" id="Combined-Shape" fill="url(#linearGradient-3)" opacity="0.100000001"></path>
                </g>
            </g>
        </g>
    </g>
</svg>